<svg viewBox="0 0 307 129" width="100" xmlns="http://www.w3.org/2000/svg" baseProfile="full"><path d="M288.4832 102.3818l2.9713-.324 2.7155-.5002 2.4621-.6438 2.2111-.7548 1.9625-.8332 3.189-1.7715v-8.2378l-3.5574 1.6105-3.8181 1.2341-4.2235.79-4.7737.2784-3.5757-.1897-3.1545-.5939-2.7274-1.0356-1.2016-.6951-1.0926-.8195-.9827-.9486-.8722-1.0825-.7608-1.2209-.6488-1.3641-.536-1.5118-.4224-1.6644-.501-3.805h34.5989v-4.9427l-.0801-3.0709-.2425-2.8794-.4078-2.6869-.5761-2.4935-.7474-2.2992-.9218-2.1041-1.0993-1.908-1.2796-1.7109-1.463-1.5131-1.6495-1.3143-1.8389-1.1145-2.0314-.9139-2.2269-.7125-2.4254-.5099-2.6269-.3067-2.8315-.1024-2.4959.1026-2.4212.3083-2.3347.5143-2.2361.7207-2.1258.9278-2.0034 1.1351-1.8692 1.343-1.723 1.5513-1.5649 1.7601-1.395 1.9693-1.213 2.1789-1.0192 2.3891-.8134 2.5996-.5958 2.8107-.3662 3.0221-.1247 3.2341v1.4416l.1014 3.0667.3046 2.9027.5083 2.7341.7123 2.5607.9169 2.3828 1.1218 2.2001 1.3274 2.0128 1.5332 1.8208 1.7395 1.624 1.9464 1.4227 2.1536 1.2166 2.3613 1.006 2.5694.7905 2.7781.5704 2.9872.3457 3.1966.1163zm-17.3369-32.2182l.526-3.6928.9205-3.0085 1.256-2.3835 1.5323-1.8175 1.7495-1.3107 1.9076-.863 2.0066-.4744 2.0464-.145 2.4365.1788 2.1313.5565 1.8199.9643 1.5026 1.4024 1.1791 1.8706.8498 2.369.5142 2.8975.1728 3.4563zM253.8469 26.2971h-11.9448v75.2732h11.9448zM212.5212 102.592l3.0641-.3327 2.865-.5541 2.6642-.7753 2.4613-.9961 2.2569-1.2166 2.0505-1.4369 1.8423-1.6567 1.6324-1.8764 1.4206-2.0957 1.207-2.3147.9917-2.5335.7744-2.7518.5554-2.97.3345-3.1878.1119-3.4053v-1.2357l-.118-3.5121-.3437-3.2068-.5537-2.9124-.748-2.6289-.9265-2.3561-1.0895-2.0942-1.2367-1.8433-1.3682-1.6031-1.484-1.3738-1.5842-1.1555-1.6687-.9478-1.7375-.7512-1.7905-.5653-1.828-.3904-1.8497-.2263-1.8557-.073-2.5225.0891-2.3269.2568-2.1483.4089-1.9867.5452-1.8418.6659-1.714.7709-3.1117 1.794h-.5148V26.2971h-11.8419v21.155l1.2339.843 1.5413 1.3531 1.3611 1.541 1.1594 1.7152.9439 1.8693.7238 2.0036.5067 2.1217.2976 2.2306.0938 2.2577v38.193l1.6763.3117 5.6233.6034 5.5364.2076zm-5.6588-9.0906l-2.5969-.362-2.1334-.4972-1.728-.5454V59.8663l1.9468-.8367 2.5067-.8366 2.9315-.6436 3.2211-.2574 3.2065.1977 2.7515.6309 1.2078.4956 1.0972.6252.9877.7619.8793.9056.7719 1.0564.6655 1.2144.5602 1.3794.456 1.5515.6036 3.6477.1993 4.4212v2.0594l-.077 2.4694-.2257 2.24-.3659 2.0205-.4979 1.8105-.6216 1.6101-.7369 1.4195-.8441 1.2385-.9429 1.0671-1.0334.9055-1.1155.7534-1.1895.611-1.2551.4782-2.6739.5969-2.8368.1818z"/><path d="M169.865 102.3938l2.2248-.2974 1.9979-.4737 1.7831-.6317 1.5804-.7717 1.3897-.8935 1.2111-.9974 1.0447-1.083h.6178l.9267 4.3249h9.7825v-38.1l-.0828-1.9926-.2465-1.8477-.4072-1.705-.5652-1.5646-.7202-1.4264-.8724-1.2905-1.0218-1.1569-1.1682-1.0255-1.3118-.8963-1.4526-.7695-1.5904-.645-1.7254-.5225-3.8444-.6873-4.35-.225-4.9508.1754-4.5356.5325-4.1688.8994-3.8502 1.2759v8.1349l2.6339-.5294 3.0682-.4617 3.4351-.3267 3.7344-.1238 3.0942.0848 2.5838.2852 2.1035.5314 1.6534.8233 1.2334 1.1613.8437 1.545.4841 1.9746.1547 2.45v4.016l-12.4597 1.4416-3.7457.7236-3.3401 1.0301-2.9058 1.3632-2.4424 1.7228-1.0384 1.0045-.9116 1.1044-.7814 1.2076-.6474 1.314-.5098 1.4239-.3687 1.537-.2238 1.6535-.0754 1.7732.0775 1.8488.2288 1.7241.3745 1.6.5146 1.4769.6492 1.3543.7782 1.2327.9015 1.1116 1.0193.9915 1.1316.8719 1.2382.7533 2.7741 1.1534 3.1336.6876 3.4486.2279zm-.6032-8.3448l-1.5854-.3256-1.4044-.5501-1.2005-.7805-.9736-1.0171-.7238-1.2596-.4511-1.5082-.1555-1.7628.1297-1.8611.3868-1.5788.6401-1.3133.89-1.0647 1.1361-.8331 1.3787-.6182 1.6176-.4203 1.8529-.2394 9.7824-1.0297v13.0776l-1.7859 1.2807-2.3073 1.0104-2.6547.6629-2.8286.2381zM134.9134 40.9193h20.0797v-9.9884h-53.031v7.5263l.2107.3356.9989 2.1265h19.076v60.651h12.6657zM65.4582 73.0468h10.8122l15.7548 28.5235h13.7984L88.3182 70.3695v-.5149l2.8251-1.2646 2.515-1.4963 2.1843-1.757 1.8332-2.0466 1.4616-2.3651 1.0693-2.7127.6567-3.0892.2234-3.4946-.0976-2.5064-.2926-2.3446-.4868-2.183-.6805-2.0212-.8735-1.8596-1.066-1.6978-1.2579-1.5361-1.4492-1.3745-1.6398-1.2127-1.8299-1.0511-2.0193-.8893-2.2082-.7277-2.3964-.5659-2.5841-.4043-2.7711-.2425-2.9576-.0809H60.6541v70.6394h4.8041zm0-8.7527V40.7133h9.5765l3.1592.1573 2.6909.4831 2.2373.8258 1.798 1.1854 1.3732 1.5619.963 1.9553.5671 2.3655.1859 2.7927-.1772 2.8917-.5453 2.4983-.9337 2.1073-1.3429 1.7188-1.7725 1.3326-2.2225.9489-2.6932.5676-3.1843.1886zM1.254747 101.5702h12.665652V70.06053H43.98845v31.50967h12.665652V30.930874H43.98845v29.141297H13.920399V30.930874H1.254747z"/></svg>
