<svg viewBox="0 0 230 230" xmlns="http://www.w3.org/2000/svg" fill-rule="evenodd" clip-rule="evenodd" stroke-linejoin="round" stroke-miterlimit="2">
  <circle cx="115" cy="115" r="115" fill="#fff"/>
  <g fill-rule="nonzero">
    <path d="M129.661 119.086c-.24-1.202-.481-8.172-.24-12.258 0-1.442.721-16.103 2.403-21.391.481-1.442.962-2.644 1.442-3.845 4.807-13.7 21.151-15.623 33.889-14.661 1.202 0 2.404.24 3.606.24 3.364.24 6.97.961 10.334 1.923 1.202.24 2.404.721 3.606.961a42.522 42.522 0 019.854 5.047c1.202 1.202 1.202 4.086-.481 3.606-2.884-.481-5.528-1.202-8.412-1.923-1.442-.241-2.884-.721-4.086-.962-3.124-.961-6.249-1.682-9.614-1.922-1.201 0-2.163-.241-3.365-.241-11.536-1.442-23.073 4.807-28.12 15.863-.721 1.202-1.202 2.644-1.683 3.846-1.682 4.086-2.643 8.172-3.364 12.257-.241 1.202-.481 2.404-.481 3.365-.481 3.365-.721 6.97-.962 10.576 0 1.201-1.201 1.682-2.163 1.682-1.442 0-2.163-.961-2.163-2.163zM47.462 84.236c5.769-3.606 12.018-6.73 18.748-8.413 1.442-.24 6.97-1.442 8.412-1.682 10.335-.721 20.429 2.163 29.082 7.931 2.163-12.017-18.026-17.064-27.881-17.064-2.163 0-5.528 0-11.777 1.923-7.931 2.643-15.141 6.729-18.987 15.141-.24.962-.481 1.923-.481 2.885-.48 0 1.202 0 1.683-.241.721-.24.961-.24 1.201-.48zM95.532 93.849c-12.979 8.413-28.121 7.451-39.657.241-1.202 0-1.683 1.202-1.683 2.403 2.404 5.769 7.211 8.172 13.219 10.095 2.884.961 11.056 1.923 17.786-.721 2.644-.962 4.807-2.404 8.172-5.288 2.163-2.163 2.884-2.884 3.605-4.807 0-1.682-.721-1.682-1.442-1.923z"/>
    <path d="M190.95 92.888c-11.297 7.691-24.516 11.296-40.138 1.442 0-.481-1.683 1.202-1.202 2.404 4.567 8.171 13.459 11.536 22.112 11.777 7.21 0 13.94-2.885 18.026-8.172 1.682-2.163 3.124-4.086 1.923-6.97-.241 0-.481-.241-.721-.481z"/>
    <path d="M115 4.2C53.952 4.2 4.2 53.952 4.2 115c0 61.048 49.752 110.8 110.8 110.8 61.048 0 110.8-49.752 110.8-110.8C225.8 53.952 176.048 4.2 115 4.2zm7.931 212.467c-51.915 0-94.456-45.666-94.456-101.667 0-56.001 42.541-101.667 94.456-101.667 51.915 0 96.457 45.666 96.457 101.667 0 56.001-44.301 101.667-96.457 101.667z"/>
    <path d="M134.228 140.957c1.202 3.846 1.202 7.932-1.442 9.855-.481.48-1.202 1.201-1.923 1.442-2.404 1.682-5.047 2.644-8.172 2.884-.721 0-1.442.24-2.163.24-2.163.241-4.567-.24-6.97-1.201-.721-.241-1.442-.721-2.163-1.202-2.884-2.163-9.854-8.653-5.288-10.335 2.404-1.202 6.49 4.567 11.296 4.807.722 0 9.374 1.682 15.623-8.893.481.481.481 1.202 1.202 1.682v.721zM93.609 168.597c.721.241 1.442.721 2.404.962.48 0 .961.24 1.442.24 7.45-3.365 15.142-5.047 23.073-2.163h4.326c2.884-.481 4.567-2.884 7.691-3.125.962 0 4.327 0 6.97 2.164.962.48 1.683.961 2.644 1.442 3.846 3.124 7.932.961 12.498 1.442-1.201 5.287-7.691 7.691-12.257 5.768-.481-.24-.721-.24-1.202-.481-.481-.24-.721-.24-1.202-.48-.481-.241-.721-.241-1.202-.481-.24-.24-.721-.24-.961-.481-.24 0-.721-.24-.961-.48-.241-.241-.721-.241-1.202-.481-.962-.481-1.923-.721-2.884-.721-.962 0-1.683.481-2.404.961-.721.481-1.442.962-2.403 1.683-.721.48-1.442 1.201-2.163 1.682-.721.481-1.683.721-2.644 1.202-1.202.481-2.644.481-4.086.481-.721 0-1.442-.241-2.163-.241l-2.163-.721c-3.846-4.086-8.653-1.202-13.219 0-.481 0-1.202.241-1.683.241-.481 0-1.202 0-1.682.24h-1.202c-4.807-.24-7.691-3.846-8.412-7.932 0-.48 2.403-.48 3.605-.48.961-.241 1.442-.241 1.442-.241zM111.395 183.259c1.202 1.201 13.219 5.047 17.545 1.442.481-.481.962-.721 1.442-1.202 1.442-1.202 3.125-1.923 5.048-1.442 1.201.481 1.201 1.682.48 2.403-.48.481-.961.962-1.202 1.683-.48.48-.961 1.201-1.201 1.682-4.327 5.528-16.584 6.73-21.872 1.442-.481-.48-.961-.961-1.202-1.442-.48-.481-.721-.961-1.201-1.442-1.202-1.202-.481-2.403.48-3.365.481-.24 1.202-.24 1.683.241z"/>
  </g>
</svg>
