<svg
	width="300"
	viewBox="0 0 928 222"
	xmlns="http://www.w3.org/2000/svg"
	fill-rule="evenodd"
	clip-rule="evenodd"
	stroke-linejoin="round"
	stroke-miterlimit="2"
>
	<g fill-rule="nonzero">
		<path
			d="M125.461 114.886c-.24-1.202-.481-8.172-.24-12.258 0-1.442.721-16.103 2.403-21.391.481-1.442.962-2.644 1.442-3.845 4.807-13.7 21.151-15.623 33.889-14.661 1.202 0 2.404.24 3.606.24 3.364.24 6.97.961 10.334 1.923 1.202.24 2.404.721 3.606.961a42.522 42.522 0 019.854 5.047c1.202 1.202 1.202 4.086-.481 3.606-2.884-.481-5.528-1.202-8.412-1.923-1.442-.241-2.884-.721-4.086-.962-3.124-.961-6.249-1.682-9.614-1.922-1.201 0-2.163-.241-3.365-.241-11.536-1.442-23.073 4.807-28.12 15.863-.721 1.202-1.202 2.644-1.683 3.846-1.682 4.086-2.643 8.172-3.364 12.257-.241 1.202-.481 2.404-.481 3.365-.481 3.365-.721 6.97-.962 10.576 0 1.201-1.201 1.682-2.163 1.682-1.442 0-2.163-.961-2.163-2.163zM43.262 80.036c5.769-3.606 12.018-6.73 18.748-8.413 1.442-.24 6.97-1.442 8.412-1.682 10.335-.721 20.429 2.163 29.082 7.931 2.163-12.017-18.026-17.064-27.881-17.064-2.163 0-5.528 0-11.777 1.923-7.931 2.643-15.141 6.729-18.987 15.141-.24.962-.481 1.923-.481 2.885-.48 0 1.202 0 1.683-.241.721-.24.961-.24 1.201-.48zM91.332 89.649c-12.979 8.413-28.121 7.451-39.657.241-1.202 0-1.683 1.202-1.683 2.403 2.404 5.769 7.211 8.172 13.219 10.095 2.884.961 11.056 1.923 17.786-.721 2.644-.962 4.807-2.404 8.172-5.288 2.163-2.163 2.884-2.884 3.605-4.807 0-1.682-.721-1.682-1.442-1.923z"
		/>
		<path
			d="M186.75 88.688c-11.297 7.691-24.516 11.296-40.138 1.442 0-.481-1.683 1.202-1.202 2.404 4.567 8.171 13.459 11.536 22.112 11.777 7.21 0 13.94-2.885 18.026-8.172 1.682-2.163 3.124-4.086 1.923-6.97-.241 0-.481-.241-.721-.481z"
		/>
		<path
			d="M110.8 0C49.752 0 0 49.752 0 110.8c0 61.048 49.752 110.8 110.8 110.8 61.048 0 110.8-49.752 110.8-110.8C221.6 49.752 171.848 0 110.8 0zm7.931 212.467c-51.915 0-94.456-45.666-94.456-101.667 0-56.001 42.541-101.667 94.456-101.667 51.915 0 96.457 45.666 96.457 101.667 0 56.001-44.301 101.667-96.457 101.667z"
		/>
		<path
			d="M130.028 136.757c1.202 3.846 1.202 7.932-1.442 9.855-.481.48-1.202 1.201-1.923 1.442-2.404 1.682-5.047 2.644-8.172 2.884-.721 0-1.442.24-2.163.24-2.163.241-4.567-.24-6.97-1.201-.721-.241-1.442-.721-2.163-1.202-2.884-2.163-9.854-8.653-5.288-10.335 2.404-1.202 6.49 4.567 11.296 4.807.722 0 9.374 1.682 15.623-8.893.481.481.481 1.202 1.202 1.682v.721zM89.409 164.397c.721.241 1.442.721 2.404.962.48 0 .961.24 1.442.24 7.45-3.365 15.142-5.047 23.073-2.163h4.326c2.884-.481 4.567-2.884 7.691-3.125.962 0 4.327 0 6.97 2.164.962.48 1.683.961 2.644 1.442 3.846 3.124 7.932.961 12.498 1.442-1.201 5.287-7.691 7.691-12.257 5.768-.481-.24-.721-.24-1.202-.481-.481-.24-.721-.24-1.202-.48-.481-.241-.721-.241-1.202-.481-.24-.24-.721-.24-.961-.481-.24 0-.721-.24-.961-.48-.241-.241-.721-.241-1.202-.481-.962-.481-1.923-.721-2.884-.721-.962 0-1.683.481-2.404.961-.721.481-1.442.962-2.403 1.683-.721.48-1.442 1.201-2.163 1.682-.721.481-1.683.721-2.644 1.202-1.202.481-2.644.481-4.086.481-.721 0-1.442-.241-2.163-.241l-2.163-.721c-3.846-4.086-8.653-1.202-13.219 0-.481 0-1.202.241-1.683.241-.481 0-1.202 0-1.682.24h-1.202c-4.807-.24-7.691-3.846-8.412-7.932 0-.48 2.403-.48 3.605-.48.961-.241 1.442-.241 1.442-.241zM107.195 179.059c1.202 1.201 13.219 5.047 17.545 1.442.481-.481.962-.721 1.442-1.202 1.442-1.202 3.125-1.923 5.048-1.442 1.201.481 1.201 1.682.48 2.403-.48.481-.961.962-1.202 1.683-.48.48-.961 1.201-1.201 1.682-4.327 5.528-16.584 6.73-21.872 1.442-.481-.48-.961-.961-1.202-1.442-.48-.481-.721-.961-1.201-1.442-1.202-1.202-.481-2.403.48-3.365.481-.24 1.202-.24 1.683.241z"
		/>
		<g>
			<path
				d="M322.68 160.042c22.581 0 36.83-12.807 36.83-30.795 0-24.319-24.443-24.463-42.091-24.463-19.072 0-43.954-2.302-43.954-19.57 0-10.649 11.18-15.829 29.047-15.829 25.322 0 43.209 8.406 53.66 21.27a1.424 1.424 0 002.055.186c.005 0 .007-.002.009-.003a1.432 1.432 0 00.335-1.722L341.31 54.99a1.565 1.565 0 00-1.396-.858h-.03c-.481 0-.935.221-1.232.599l-5.741 7.322a2.486 2.486 0 01-3.382.501c-5.871-3.966-14.283-7.559-26.579-7.559-21.045 0-34.308 11.08-34.308 29.212 0 24.75 30.801 25.614 48.777 25.614 16.442 0 35.843.719 35.843 17.987 0 13.527-12.276 17.844-30.143 17.844-26.315 0-45.071-9.652-55.966-23.275a1.325 1.325 0 00-1.984-.118c-.035.031-.068.064-.1.096a1.33 1.33 0 00-.225 1.577l19.454 35.564c.282.514.821.834 1.408.834h.803l5.733-7.642a2.487 2.487 0 013.481-.496c5.828 4.176 14.425 7.85 26.957 7.85zM448.186 156.456c0 .788.639 1.427 1.428 1.427h48.224c.788 0 1.427-.639 1.427-1.427v-.023c0-.788-.639-1.428-1.427-1.428h-1.861c-10.194 0-20.059-3.453-20.059-24.606v-7.627c0-15.254 5.152-29.5 17.209-29.5 11.729 0 15.346 8.922 20.717 8.922 2.85 0 4.275-2.302 4.275-5.18 0-6.764-5.371-12.52-16.442-12.52-12.479 0-21.052 9.426-24.474 15.761a.668.668 0 01-.591.356h-.026a.668.668 0 01-.668-.668V85.537a.773.773 0 00-.413-.684l-.244-.128a.773.773 0 00-.83.073c-7.761 5.978-16.221 10.127-25.379 12.697a1.184 1.184 0 00-.865 1.14l-.001.074c0 .653.53 1.183 1.183 1.183h4.407c10.414 0 17.758 2.734 17.758 22.88v4.749c0 21.153-9.646 27.484-21.156 27.484h-.764c-.789 0-1.428.64-1.428 1.428v.023zM593.907 133.715a1.29 1.29 0 00-.64-1.497l-.082-.044a1.29 1.29 0 00-1.758.575c-5.092 10.325-14.813 14.198-30.231 14.198-18.853 0-29.595-7.627-29.595-25.039a.72.72 0 01.719-.719h60.158c.595 0 1.156-.278 1.516-.751l.022-.029c.257-.337.395-.752.39-1.176-.27-21.206-13.465-34.739-33.21-34.739-19.62 0-33.98 13.815-33.98 37.414 0 23.6 14.031 37.414 34.309 37.414 16.422 0 27.8-9.797 32.382-25.607zM559.771 96.87h3.508c14.93 0 24.387 5.665 26.204 18.485a.694.694 0 01-.688.793c-6.389.004-49.482.004-55.945.004a.7.7 0 01-.692-.814c2.13-12.808 11.401-18.468 27.613-18.468zM437.491 133.715a1.29 1.29 0 00-.64-1.497l-.082-.044a1.29 1.29 0 00-1.758.575c-5.093 10.325-14.813 14.198-30.231 14.198-18.853 0-29.595-7.627-29.595-25.039a.72.72 0 01.719-.719h60.157a1.909 1.909 0 001.539-.78c.257-.337.394-.752.39-1.176-.27-21.206-13.465-34.739-33.21-34.739-19.621 0-33.98 13.815-33.98 37.414 0 23.6 14.03 37.414 34.309 37.414 16.422 0 27.799-9.797 32.382-25.607zM403.355 96.87h3.507c14.93 0 24.387 5.665 26.205 18.485a.698.698 0 01-.163.554.698.698 0 01-.526.239c-6.388.004-49.481.004-55.944.004a.698.698 0 01-.692-.814c2.13-12.808 11.401-18.468 27.613-18.468zM604.602 156.45a1.434 1.434 0 001.434 1.433h47.116c.38 0 .745-.151 1.014-.419.268-.269.419-.634.419-1.014v-.011a1.434 1.434 0 00-1.433-1.434h-.759c-10.194 0-20.059-3.453-20.059-25.182v-7.627c0-15.541 6.467-25.326 25.321-25.326h2.411c18.853 0 25.32 9.209 25.32 25.326v4.749c0 21.729-9.645 28.06-21.155 28.06h-.758a1.434 1.434 0 00-1.434 1.434v.011a1.434 1.434 0 001.434 1.433h47.115a1.436 1.436 0 001.434-1.433v-.011a1.434 1.434 0 00-1.434-1.434h-.758c-10.194 0-20.059-3.453-20.059-25.182V114.57c0-21.729-13.811-30.076-29.595-30.076-13.952 0-22.461 10.087-26.581 20.032a.65.65 0 01-.6.402h-.012a.649.649 0 01-.649-.648V85.597a.874.874 0 00-.466-.772l-.134-.07a.872.872 0 00-.937.082c-7.745 5.955-16.184 10.091-25.318 12.656a1.196 1.196 0 00-.876 1.152l-.001.05a1.194 1.194 0 001.197 1.197h4.394c10.413 0 17.757 2.734 17.757 22.304v4.749c0 21.729-9.646 28.06-21.155 28.06h-.759a1.434 1.434 0 00-1.434 1.434v.011zM730.547 65.931c0 3.742 3.288 7.339 8.549 7.339 5.152 0 8.44-3.597 8.44-7.339 0-3.885-3.288-7.482-8.44-7.482-5.261 0-8.549 3.597-8.549 7.482zm33.979 90.512c0-.794-.644-1.438-1.438-1.438h-.754c-10.194 0-20.059-3.453-20.059-25.182v-44.16a.983.983 0 00-.525-.869l-.013-.007a.984.984 0 00-1.055.092c-7.727 5.931-16.146 10.053-25.255 12.612-.522.145-.883.62-.883 1.162l-.001.032c0 .32.127.627.354.853.226.227.533.354.853.354h4.383c10.414 0 17.758 2.734 17.758 22.304v4.749c0 21.729-9.646 28.06-21.156 28.06h-.754c-.794 0-1.438.644-1.438 1.438v.002a1.439 1.439 0 001.438 1.438h47.107a1.436 1.436 0 001.438-1.438v-.002zM825.465 128.495a1.11 1.11 0 00-1.108-1.118h-.001c-.593 0-1.077.473-1.092 1.065-.346 13.985-7.61 18.505-18.839 18.505-10.084 0-18.415-5.324-18.415-19.714V91.689h28.928a2.86 2.86 0 002.86-2.859v-.037a2.86 2.86 0 00-2.86-2.86H786.01V58.969a1.096 1.096 0 00-2.192 0v1.782c0 19.57-10.304 26.046-18.963 26.621h-.792a1.4 1.4 0 00-1.4 1.4v.078a1.4 1.4 0 001.4 1.4h.792c8.659 0 16.771 4.174 16.771 20.866v19.283c0 9.641 0 29.643 22.689 29.643 16.73 0 20.974-14.738 21.15-31.547zM891.895 177.99a1.4 1.4 0 00-1.4-1.4h-.792c-2.411 0-22.032-1.87-12.934-19.426l23.895-46.048c7.892-15.253 13.483-22.305 25.321-22.305h.001a1.315 1.315 0 001.314-1.314v-.164a1.4 1.4 0 00-1.4-1.4h-43.456a1.4 1.4 0 00-1.4 1.4v.078a1.396 1.396 0 001.4 1.4h1.559c7.564 0 18.086 9.354 11.51 22.017l-15.817 30.6a1 1 0 01-1.757.037l-18.16-31.788c-8.44-14.678 1.754-20.866 9.317-20.866h1.56a1.4 1.4 0 001.4-1.4v-.078a1.4 1.4 0 00-1.4-1.4h-44.517c-.793 0-1.436.643-1.436 1.436v.002c0 .796.645 1.44 1.44 1.44h.972c10.742 0 18.743 6.476 27.074 21.154l21.158 37.407c.408.723.426 1.603.046 2.341l-2.351 4.573c-9.207 17.7-16.88 22.304-28.937 22.304h-.793a1.4 1.4 0 00-1.4 1.4v.078a1.4 1.4 0 001.4 1.4h47.183c.774 0 1.4-.626 1.4-1.4v-.078z"
			/>
		</g>
	</g>
</svg>
