<svg viewBox="0 0 30 30" width="16" height="16" xmlns="http://www.w3.org/2000/svg"><g fill-rule="evenodd"><path d="M.722 28.278l2.438-9.754L18 3.685 25.315 11 10.476 25.84.722 28.278zm4.118-8.802l-1.562 6.246 6.246-1.562L22.685 11 18 6.315 4.84 19.476z"/><path d="M8.851 25.287a7.038 7.038 0 0 0-5.138-5.138l.451-1.805a8.896 8.896 0 0 1 6.492 6.492l-1.805.451"/><path d="M8.658 21.658l-1.316-1.316 13-13 1.316 1.316-13 13M2 27l2.902-.725a2.995 2.995 0 0 0-2.177-2.177L2 27M26 10.315L18.685 3 21.599.086l.455.061a7.93 7.93 0 0 1 6.799 6.799l.061.455L26 10.315zM21.315 3L26 7.685l.934-.934a6.073 6.073 0 0 0-4.685-4.685L21.315 3z"/></g></svg>
