<svg viewBox="0 0 30 32" width="16" height="16" xmlns="http://www.w3.org/2000/svg"><g fill-rule="evenodd"><path d="M8 10h2v16H8zM12 10h2v16h-2zM16 10h2v16h-2zM0 4h26v2H0z"/><path d="M17.93 5h-1.86V3c0-.59-.48-1.07-1.07-1.07h-4c-.59 0-1.07.48-1.07 1.07v2H8.07V3A2.933 2.933 0 0 1 11 .07h4A2.933 2.933 0 0 1 17.93 3v2"/><path d="M19 32H7c-1.614 0-3.027-1.309-3.15-2.918L2.003 5.077l1.994-.154 1.847 24.006C5.888 29.5 6.428 30 7 30h12c.572 0 1.112-.5 1.156-1.07l1.847-24.007 1.994.154-1.847 24.005C22.027 30.691 20.614 32 19 32"/></g></svg>
