<svg viewBox="0 0 150 124" width="312" height="148" xmlns="http://www.w3.org/2000/svg">
  <g class="building-path" fill="none" fill-rule="evenodd">
    <path d="M40.9839 17.7562l-8.948 8.027v12.97l-23.186 12.152-7.834 7.408v27.312l7.317 6.321v11.121l15.312 13.225 7.994-4.214 7.009 6.053 10.165-5.359v-9.749l25.527-13.388 10.083 8.711v15.637l10.745 9.28 17.938-9.456 7.176-3.783 7.176-3.785 7.176-3.783 14.351-7.566v-27.313l-7.899-6.846-68.838-59.45900004z"/>
    <path d="M38.6212 90.8192l1.234-13.11m-6.794-5.865l6.794 5.865m-8.247 7.056l7.013 6.054m38.309-42.015l28.425 24.534m-31.016-11.015l19.68 16.989m2.162 5.101l-4.491-3.876M72.2462 1.27219996L40.9592 17.7562m11.711 10.109l-11.711-10.109m100.174 42.975L72.2462 1.27219996M.9622 58.3122l7.84-7.408m87.379 33.509l44.952-23.682m-45.951 35.223l.999-11.541m-79.491-16.429l7.389-3.892m52.851-15.288l-43.869 23.04m-9.454 17.137l2.065-13.245m-1.593-11.644l-15.277-13.188m140.236 16.673l-7.905-6.846m-109.129-34.948l8.955-8.027m-15.287 57.98l-8.982-7.752m78.492 27.97l17.952-9.459m-17.952 36.768l17.952-9.456m35.904-18.918v-27.312m-125.431 48.716l-15.323-13.226m86.898-7.113l-10.753-9.283m-10.09 2.965l-25.545 13.387m25.545-13.387v-27.313m0 0l-32.538 17.072m-18.194 9.586l-15.323-13.227m86.898 47.509v-27.309m0 27.309l-10.753-9.28m-10.09-24.347l10.09 8.71m-60.822 17.947v-27.312m-9.102-18.978L.9622 58.3122m30.646 53.765l-8.001 4.216m8.001-4.216v-27.312m0 0l-8.001 4.216m-22.645-3.356v-27.313m40.372-24.476l-9.33-8.053m16.79 59.676l-10.173 5.36m10.173 21.952l-10.173 5.36m-7.013-6.054l7.013 6.054m-30.337-26.186l-7.322-6.32m31.042-46.872v-12.97m6.617 92.348v-27.312m-5.56-18.975l-7.389 3.892m58.757 10.935l7.261-6.134m35.806 25.701l7.18-3.783m-14.993 7.893v-7.683m.632 7.359l7.181-3.786m-14.362 7.569l7.181-3.783m13.136-6.943v-26.994m-6.588 30.475v-7.68m7.813 3.573l14.362-7.566m-14.362-19.746l14.362-7.566m-35.904 18.918l21.542-11.352m-14.993 27.522l7.18-3.783m-87.008-21.173l1.946 1.686m0 0l6.993 6.064m-40.51-9.705l6.221-5.751m0 0l2.185-2.019m75 12.553l2.329-1.225m0 0l11.336-5.974m-96.553-22.434l23.202-12.151m52.425 75.23v-15.637m0 0v-11.675m-76.145-10.917v16.191m0 0v11.122m40.51 9.704v-9.748m0 0v-17.564m-16.79-46.706l9.33-4.917m0 0l11.336-5.971m59.239 86.568v-27.082m-22.104 8.227v3.416m0 4.267v3.412m0 4.27v3.413m-46.098-21.95v3.413m0 4.27v3.413m0 4.267v3.415m-27.761-24.549v3.415m0 4.267v3.413m0 4.267v3.415m51.212-35.036v3.413m0 4.267v3.415m0 4.268v3.412m-7.181-14.992v3.413m0 4.267v3.416m0 4.267v3.412m-7.181-14.992v3.413m0 4.27v3.413m0 4.267v3.415m27.153-25.285v3.413m0 4.267v3.416m0 4.267v3.412m5.611-13.933v3.413" stroke="#7D7D7D" stroke-linecap="round" stroke-linejoin="round"/>
  </g>
</svg>
