<svg xmlns="http://www.w3.org/2000/svg" viewBox="0 0 230 165" width="312" height="148">
  <script/>
  <style>
    .st0,.st2{stroke:#858585;stroke-miterlimit:10}.st0{fill:#fff}.st2,.st3{fill:#fff;stroke-linecap:round}.st2{stroke-linejoin:round}.st3{stroke-miterlimit:10;stroke:#858585}
  </style>
  <path class="st0" d="M80.8 145.5l116.5-62.1V62.7l-47.5-42L34 82.7v22z"/>
  <path class="st0" d="M148.3 45l48.2 17.4c.3.1.3.6 0 .7L82.1 121.3c-.5.2-1-.1-1-.6l3-41.3"/>
  <path fill="none" stroke="#858585" stroke-miterlimit="10" d="M80.8 145.5l.2-23.7-45.8-39.1 48.9-3.3L148.3 45l1.5-24.3"/>
  <path class="st0" d="M175 83.2v18.2l8.3 7.1 16.7-9.1V81.9l-8.7-6.7z"/>
  <path class="st2" d="M183.3 108.5l.3-18.5-8.6-6.8 12.5-2.9 3.8-5.1"/>
  <path class="st2" d="M200 81.9L183.6 90l3.9-9.7zm-78 24.2L166.5 83l-19.6-2z"/>
  <path class="st2" d="M146.9 81l-5.2 2.2-19.7 22.9"/>
  <path class="st3" display="block" d="M125 125.3l-3-1.3v-17.6"/>
  <path class="st0" d="M128.7 123.6l-3.5 1.7c-.2.1-.4 0-.4-.3v-20.5l3.9-1.9v21z"/>
  <path class="st3" display="block" d="M134.7 120.5l-3.1-1.3v-17.7"/>
  <path class="st0" d="M138.4 118.7l-3.5 1.7c-.2.1-.4 0-.4-.3V99.7l3.9-1.9v20.9z"/>
  <path class="st3" display="block" d="M143.9 115.7l-3-1.3V96.8"/>
  <path class="st0" d="M147.6 114l-3.5 1.7c-.2.1-.4 0-.4-.3V94.9l3.9-1.9v21z"/>
  <path class="st3" display="block" d="M162.4 106.1l-3-1.3V87.1"/>
  <path class="st0" d="M166.1 104.3l-3.5 1.7c-.2.1-.4 0-.4-.3V85.3l3.9-1.9v20.9z"/>
  <path class="st3" display="block" d="M153.2 111l-3.1-1.3V92"/>
  <path class="st0" d="M156.9 109.2l-3.5 1.7c-.2.1-.4 0-.4-.3V90.2l3.9-1.9v20.9z"/>
  <path d="M95.7 119v2.7m0 3.3v2.7m-8-4.3v2.6m0 3.4v2.6m15.4-15.9v2.6m0 3.3v2.7m6.7-13v2.7m0 3.3v2.7m7-13v2.7m0 3.3v2.7M170 80.8v2.7m0 3.3v2.7m17.7 16.6V93l7.2-3.5v12m-3.6-3.7v6.3" stroke="#7d7d7d" stroke-linejoin="round" fill="#fff" stroke-linecap="round"/>
</svg>
