<svg width="312" height="148" viewBox="0 0 197 153" xmlns="http://www.w3.org/2000/svg">
  <g class="building-path" fill="none" fill-rule="evenodd">
    <path d="M6.9957 26.5044v13.019l23.293 20.121-29.73 15.673v13.02l24.023 20.752v9.064l24.432 21.102 6.516-3.436 18.325 15.829 27.361-14.427 6.107 5.275 11.729-6.184v-13.017l-6.108-5.275-18.324-15.829v-4.649l-9.211-11.462 16.051-8.461 15.637-8.243 6.107 5.276 48.862 42.206 23.453-12.367v-21.387l-48.862-42.206-.024-.026-11.725 1.535-11.728 10.833.024.022v5.367h-.024L56.1077.6924z"/>
    <path d="M183.845 84.6388l-48.915-42.231 48.915 42.231zm-60.626-31.376l48.891 42.209-48.891-42.209zm48.891 42.209l11.735-10.833-11.735 10.833zm-48.891-20.82v-21.389 21.389zm-6.112-15.289l6.112 5.276-6.112-5.276zm0 10.014v-10.014 10.014zm0 0l6.112 5.275-6.112-5.275zm78.47 35.114v-21.387 21.387zM73.84 151.6478l27.377-14.427-27.377 14.427zm98.27-34.789l23.467-12.368-23.467 12.368zM.5 88.3368v-13.019 13.019zm0 0l24.038 20.752L.5 88.3368zm69.67-11.899v-3.718 3.718zM56.082.6918L6.941 26.5048 56.082.6918zm127.763 83.947l11.732-1.535-11.732 1.535zm-60.651-31.398l11.736-10.833-11.736 10.833zm11.736-10.833l11.732-1.535-11.732 1.535zm-49.529 43.673l16.061-8.461-16.061 8.461zm9.216 16.111v-4.649 4.649zm77.493 14.667v-21.387 21.387zm-48.891-42.207l48.891 42.207-48.891-42.207zM6.941 39.5238v-13.019 13.019zm106.011 78.497l-18.335-15.829 18.335 15.829zM6.941 39.5238l23.307 20.12-23.307-20.12zM.5 75.3178l30.558 26.38L.5 75.3178zm55.005 47.485l18.335 15.826-18.335-15.826zm-15.894-68.093l-32.67-28.205 32.67 28.205zm155.966 28.394l-48.891-42.206 48.891 42.206zm-140.072 35.05l19.556-10.306-19.556 10.306zm14.665-41.716l12.224 5.905-12.224-5.905zm-39.112 20.611l19.556-10.305-19.556 10.305zm12.223 5.902l39.113-20.608-39.113 20.608zm31.78 4.897l19.556-10.305-19.556 10.305zm32.268 21.632v13.017-13.017zm11.735 6.833v-13.017 13.017zm-17.847.908l6.112 5.276-6.112-5.276zm0-13.019l6.112 5.278-6.112-5.278zm6.112 5.278l11.735-6.184-11.735 6.184zm5.623-11.459l6.112 5.275-6.112-5.275zm-11.735 6.181v13.019-13.019zm-45.712 11.617l-6.52 3.436 6.52-3.436zm67.689-77.19L56.082.6918l67.112 57.937zm-6.087.734l-8.343.167 8.343-.167zm-77.496-4.653l27.214 23.491-27.214-23.491zm0 0v-8.37 8.37zm15.894 68.093v13.016-13.016zm0 13.016l18.335 15.829-18.335-15.829zm18.335 15.829v-13.019 13.019zm-49.302-33.494l24.447 21.101-24.447-21.101zm24.447 8.082v13.019-13.019zm-24.447-21.102l24.447 21.102-24.447-21.102zm6.52-3.436l-6.52 3.436 6.52-3.436zm0 0v-4.649 4.649zm0 0l24.447 21.105-24.447-21.105zm24.447 21.105v-4.649 4.649zm0-4.649l-12.224-15.203 12.224 15.203zm-12.224-15.203l-12.223-5.902 12.223 5.902zm5.704 23.285l6.52-3.433-6.52 3.433zm21.185-53.516l31.292-16.487-31.292 16.487zm19.928-27.523l-18.335-15.826 18.335 15.826zM70.17 72.7198l-30.559-26.38 30.559 26.38zm38.594-20.348v7.158-7.158zm-18.666-7.175l6.442-3.381 12.21 10.54-7.288 3.877-11.364-11.036zm11.364 32.423l15.645-8.243-15.645 8.243zm0-21.387v21.387-21.387zm-.245 67.969l11.735-6.181-11.735 6.181zm-18.823-41.859l3.007 3.738-3.007-3.738zm3.007 3.738l9.216 11.462-9.216-11.462zm-34.787.663l16.211-8.543-16.211 8.543zm16.211-8.543l3.345-1.763-3.345 1.763zm-27.214-23.491l-9.363 4.934 9.363-4.934zm-9.363 4.934L.5 75.3178l29.748-15.674zm-5.71 58.51v-9.065 9.065zm0-9.065v-3.955 3.955zm47.225-79.718l-11.358 6.015 11.358-6.015zm-11.358 6.015l-20.794 10.954 20.794-10.954zm13.435 103.243l27.377-14.427-27.377 14.427zm33.489 3.868l11.735-6.184-11.735 6.184zm34.222-68.756v3.718-3.718zm0 8.367v3.722-3.722zm-6.112-13.642v3.718-3.718zm0 8.367v3.721-3.721zm-6.111-13.643v3.718-3.718zm0 8.368v3.721-3.721zm18.335 7.459v3.721-3.721zm0 8.37v3.718-3.718zm18.335 7.459v3.718-3.718zm0 8.367v3.721-3.721zm-12.223-18.921v3.721-3.721zm0 8.37v3.718-3.718zm-12.224-18.921v3.718-3.718zm0 8.367v3.722-3.722zm18.335 7.459v3.721-3.721zm0 8.371v3.718-3.718zm20.048-1.938v3.718-3.718zm0 8.367v3.721-3.721zm7.822-12.492v3.721-3.721zm0 8.37v3.721-3.721zm-94.119-35.241v3.718-3.718zm0 8.368v3.721-3.721zm-7.821-4.246v3.718-3.718zm0 8.367v3.721-3.721zm-7.821-4.246v3.719-3.719zm19.312 57.666v3.721-3.721zm-7.821 4.122v3.721-3.721zm-7.825 4.122v3.721-3.721zm-20.045-6.43v3.721-3.721zm6.112 5.276v3.721-3.721zm-12.223-10.551v3.718-3.718zm-36.67-31.656v3.721-3.721zm-12.223-10.55v3.718-3.718zm6.111 5.275v3.718-3.718zm30.15 30.44v13.019-13.019zm-6.112-5.276v13.019-13.019zm-6.108-5.275v13.019-13.019zm78.63-45.282v3.719-3.719zm-90.119-23.42v3.718-3.718zm6.113 5.275v3.718-3.718zm-12.224-10.551v3.718-3.718zm0 0v3.718-3.718zm12.224 10.551v3.718-3.718zm-6.113-5.275v3.718-3.718zm12.224 10.551v3.721-3.721zm38.829 8.483c7.878 0 14.392-4.477 13.808-10.331-.274-2.772-1.33-5.809-3.567-7.862-2.898-2.66-6.77-4.52-11.402-4.52-4.631 0-8.262 1.872-10.875 4.52-2.025 2.056-2.769 5.09-2.763 7.862.015 5.854 6.921 10.331 14.799 10.331z" stroke="#7D7D7D" stroke-linecap="round" stroke-linejoin="round"/>
  </g>
</svg>
