<svg viewBox="0 0 210 143" width="312" height="148" xmlns="http://www.w3.org/2000/svg">
  <g class="building-path" fill="none" fill-rule="evenodd">
    <path d="M28.8556 43.7987l-7.057 3.763v18.139l9.301 8.032-10.48 5.525-.012.024-19.892 16.403v18.138l31.08 26.847 11.813.978 165.754-87.395v-18.138l-32.196-27.811-35.466 18.699.009.068-30.75-26.561z"/>
    <path d="M43.5792 141.648l-11.818-.979m0 0L.6652 113.823m30.399-40.091l-9.305-8.032m147.761.074l-15.548-15.395m15.64 24.849V57.089m-15.64-13.414l15.64 13.414m-15.64-13.414v6.704m-10.986 29.378v9.463m0-9.463v-8.675m-6.633 3.496l6.633-3.496m-6.633 3.496v18.138m-6.635-14.642l6.635-3.496m-6.635 3.496v18.138m-6.838-20.721l19.684-4.759m-47.278-19.169l27.8 24.092M110.9632.509l30.763 26.561M110.9632.509l-82.144 43.29m29.429 20.304l65.075-34.295M37.9252 46.56l20.323 17.543m2.855 28.514l26.535-13.984m-58.686 7.888l66.334-34.958m17.878-38.414l-10.161-4.828m20.32 17.543l-10.159-12.715m10.159 16.659v-3.944m53.878-17.56l-35.483 18.699m29.387-2.021l-28.951 2.303m29.011-2.335l6.036-16.646m-54.115 73.265l-6.635 3.496m6.635-3.496l6.632-3.495m-6.632-2.419l-20.288 15.911m7.021-3.005l-6.633 3.496m13.265-6.992l-6.632 3.496m-6.633 3.496l-15.548-13.424m-55.877 43.898v18.138M.6652 95.684l31.096 26.847m-31.096-8.708V95.684m109.154-7.123v18.138m6.632-21.634v18.139m26.535-23.447l26.534-13.983m-15.548-15.395l-21.711 11.442m-29.075 48.288V92.057m50.786-48.382l-26.534 13.984m-83.859 65.85v18.139m44.059-56.311v-6.704m-21.712 18.146l21.712-11.442m35.448-3.768v18.139M20.5682 79.282l8.384 7.239m29.296-26.361l65.075-34.296m-75.236 21.581l65.077-34.296m-65.077 34.296l10.161 12.715m83.47-33.067l-46.432 24.47m-74.718 27.719L.6652 95.684m31.096 26.847l10.521-24.581m-10.521 24.581l11.818.978m59.607-22.777l-26.44 13.934m26.44-13.934l-15.548-15.395m-58.686 1.184l13.33 11.429m0 0l34.464 8.08m-38.821-59.47v-3.943m65.078-34.296l-65.078 34.296m20.323 21.486V60.16m-29.429-16.361l-7.06 3.762m0 18.139V47.561m16.166-4.944l10.162 4.828m-3.979 19.412l-22.349-19.296m187.652 6.692V36.114m-66.425 34.968l-10.725-9.261m0 0l-4.823-4.162m-96.374 16.073l-10.485 5.526m40.524 13.359l4.823 4.162m0 0l10.82 9.251m0 18.139v-3.002m77.226-77.492l-12.246-16.605m-.008.023v-.09m-97.61 39.854l-13.044 6.875m45.682 47.435v-9.464m0 0v-5.673m100.455-97.726l32.21 27.81M43.5792 141.648l165.832-87.395M76.7462 106.03l-33.167 17.479m126.033-66.42l39.799-20.975m-39.799 20.975l8.578-25.049 31.221 4.074M26.5792 122v3.154m0 3.943v3.155m-15.548-23.676v3.155m0 3.943v3.155M26.5792 122v3.154m0 3.943v3.155m-20.731-28.15v3.154m0 3.944v3.154m15.548 3.171v3.155m0 3.943v3.154m-5.183-14.726v3.154m0 3.943v3.155m40.631-2.842v3.155m0 3.943v3.154m-6.633-6.756v3.154m0 3.944v3.154m19.9-20.74v3.155m0 3.943v3.155m-6.632-6.757v3.155m0 3.943v3.154m-25.81-.254v3.155m0 3.943v3.155m45.615-23.631v3.154m6.635-6.65v3.155m6.632-6.651v3.155m66.334-38.113v3.155m-13.267 3.837v3.155m6.635-6.651v3.155m26.626-24.245v3.154m0 3.943v3.155m-6.635-6.756v3.154m0 3.943v3.155m13.268-17.244v3.154m0 3.943v3.155m6.635-13.748v3.155m0 3.943v3.154m-158.84 7.627v3.154m-5.183-7.629v3.155m0 3.943v3.154m-5.182-14.726v3.154m0 3.943v3.155m175.837-22.678v3.155m0 3.943v3.155m-31.674-28.824l7.085 7.058" stroke="#7D7D7D" stroke-linecap="round" stroke-linejoin="round"/>
  </g>
</svg>
