<svg width="312" height="148" viewBox="0 0 373.07 321.29" xmlns="http://www.w3.org/2000/svg">
  <g class="building-path">
    <path fill="none" d="M103.93 320.29l-34.31-33.74-34.31-33.74L1 219.08v-36.55l101.06-60.66 80.89-48.55 48.2-28.93L303.45 1l17.16 16.86 51.46 50.61v36.55l-36.15 21.69-67.19 40.33v27.17l-12.58 7.55v27.16l-43.43 26.07-37.77 22.67-71.02 42.63z"/>
    <path fill="none" stroke="#c38ebc" stroke-width=".04" d="M103.93 320.29l-34.31-33.74-34.31-33.74L1 219.08v-36.55l101.06-60.66 80.89-48.55 48.2-28.93L303.45 1l17.16 16.86 51.46 50.61v36.55l-36.15 21.69-67.19 40.33v27.17l-12.58 7.55v27.16l-43.43 26.07-37.77 22.67-71.02 42.63z"/>
    <path fill="none" stroke="#939393" stroke-width="2" stroke-linecap="round" stroke-linejoin="round" d="M103.93 320.29l-34.31-33.74M372.07 105.02l-36.15 21.69M24.08 205.23l77.98-46.81M35.31 252.81L1 219.08M69.62 286.55l-34.31-33.74M113.29 169.46l-11.23-11.04M335.92 126.71l-67.19 40.33M106.33 210.19l11.23 11.04M174.95 277.66l-71.02 42.63M174.95 277.66l37.77-22.67M268.73 194.21l-12.58 7.55M256.15 228.92l-43.43 26.07M1 182.53l101.06-60.66M35.31 216.27l71.02-42.63M103.93 320.29v-36.55M58.39 238.96l47.94-28.77M102.06 121.87l80.89-48.55M119.21 138.74l-17.15-16.87M182.95 100.48V73.32M102.06 158.42v-36.55M182.95 73.32l17.16 16.87M182.95 73.32l48.2-28.93M231.15 71.56V44.39M231.15 44.39l17.16 16.87M231.15 44.39L303.45 1M303.45 1l17.16 16.87M320.61 54.41V17.87M320.61 17.87l51.46 50.6M372.07 105.02V68.47M159.93 226.35l15.02 14.76M268.73 157.66l-29.74 17.85M238.99 175.51l17.16 16.87M140.64 207.38l19.29 18.97M140.64 243.92v-36.54M106.33 210.19v-36.55M248.31 61.26l36.15-21.7M136.37 155.61l-17.16-16.87M136.37 192.16v-36.55M320.61 54.41l28.38 27.91M320.61 54.41l-13.07 7.85M284.46 76.11l-36.15 21.7M136.37 192.16l30.52 30.01M170.68 219.9v-30.55M197.7 227.46v-23.78M140.64 243.92L92.7 272.7M129.41 196.34l6.96-4.18M1 219.08v-36.55M35.31 216.27l-11.23-11.04M24.08 205.23L1 182.53M69.62 250l47.94-28.77M117.56 221.23l23.08-13.85M69.62 250l-11.23-11.04M58.39 238.96l-23.08-22.69M151.87 254.97l-47.94 28.77M103.93 283.74L92.7 272.7M92.7 272.7L69.62 250M372.07 68.47l-23.08 13.85M348.99 82.32l-13.07 7.85M284.46 39.56l18.99-11.4M303.45 28.16l17.16-10.29M174.95 241.11l22.75-13.65M197.7 227.46l15.02-9.02M170.68 189.35l-28.39-27.91M142.29 161.44l-5.92-5.83M256.15 192.38l-17.16 10.29M238.99 202.67l-26.27 15.77M212.72 218.44l-11.23-11.04M201.49 207.4l-3.79-3.72M166.89 222.17l-6.96 4.18M106.33 173.64l23.08 22.7M129.41 196.34l11.23 11.04M106.33 173.64l6.96-4.18M268.73 194.21v-27.17M268.73 167.04v-9.38M238.99 202.67v-17.78M238.99 184.89v-9.38M256.15 228.92v-27.16M256.15 201.76v-9.38M119.21 138.74l63.74-38.26M182.95 100.48l17.16-10.29M200.11 90.19l31.04-18.63M231.15 71.56l17.16-10.3M284.46 39.56l23.08 22.7M307.54 62.26l28.38 27.91M335.92 90.17l-23.08 13.85M312.84 104.02l-142.16 85.33M174.95 241.11l-15.02 9.02M159.93 250.13l-8.06 4.84M197.7 203.68l-27.02 16.22M170.68 219.9l-3.79 2.27M113.29 169.46l5.92-3.55M119.21 165.91l17.16-10.3M140.64 243.92l11.23 11.05M200.11 126.74l-57.82 34.7M248.31 97.81l-48.2 28.93M238.99 184.89l-37.5 22.51M312.84 104.02l-28.38-27.91M284.46 76.11V39.56M303.45 1v27.16M163.96 122.33v15.66M224.21 86.17v26.1M300.53 65.65v26.11M163.96 137.99v10.44M215.42 172.93v26.11M52.46 243.58v15.66M86.77 277.31v15.67M18.15 209.84v15.66M121.81 218.68v-19.37M149.92 253.06v-26.11"/>
  </g>
</svg>
