<svg viewBox="0 0 251.5 386.62" width="312" height="148" xmlns="http://www.w3.org/2000/svg">
  <g class="building-path">
    <path fill="none" d="M160.08 1l90.42 89.17v200L91.47 385.62 1 296.67V96.86L160.08 1z"/>
    <path fill="none" stroke="#939393" stroke-width="3" stroke-linecap="round" stroke-linejoin="round" d="M250.5 290.17V162.63M91.47 385.62L1 296.67M250.5 290.17l-67.28 40.38M91.47 385.62V258.08M91.47 258.08L1 169.12M250.5 162.63L91.47 258.08M91.47 258.08v-72.46M1 169.12V96.86M250.5 162.63V90.17M1 169.12v127.55M183.22 262.64l-24.47 14.69M158.75 345.24l-67.28 40.38M158.75 277.33v67.91M183.22 330.55v-67.91M183.22 330.55l-24.47 14.69M1 96.86l90.47 88.76M91.47 185.62L250.5 90.17M250.5 90.17h0M160.08 1L1 96.86M122.05 277.82v13.25M122.05 307.64v13.25M122.05 248.01v13.25M122.05 337.45v13.25M122.05 218.19v13.25M146.52 263.14v13.25M146.52 292.95v13.25M146.52 233.32v13.25M146.52 322.77v13.25M146.52 203.51v13.25M170.99 248.45v13.25M170.99 218.64v13.25M170.99 308.08v29.82M170.99 188.82v13.25M195.45 233.77v13.25M195.45 263.58v13.25M195.45 203.95v13.25M195.45 293.4v13.25M195.45 174.14v13.25M219.92 219.08v13.25M219.92 248.9v13.25M219.92 189.27v13.25M219.92 278.71v13.25M219.92 159.45v13.25M48.46 253.89v13.25M48.46 283.7v13.25M48.46 224.07v13.25M48.46 313.52v13.25M48.46 194.26v13.25M146.52 186.94v-24.25M170.99 172.26v-24.25M195.45 157.57v-24.25M219.92 142.89v-24.25M122.05 201.63v-24.25M48.46 177.69v-24.18M160.08 1l90.42 89.17"/>
  </g>
</svg>
