<?xml version="1.0" encoding="utf-8"?>
<!-- Generator: Adobe Illustrator 19.0.1, SVG Export Plug-In . SVG Version: 6.00 Build 0)  -->
<svg version="1.1" id="Слой_1" xmlns="http://www.w3.org/2000/svg" xmlns:xlink="http://www.w3.org/1999/xlink" x="0px" y="0px"
	 viewBox="0 0 841.9 595.3" style="enable-background:new 0 0 841.9 595.3;" xml:space="preserve">
<style type="text/css">
	.st0{fill:#CCF8FF;}
	.st1{fill:none;stroke:#00AEEF;stroke-width:3;stroke-miterlimit:10;}
	.st2{fill:none;stroke:#231F20;stroke-width:5;stroke-miterlimit:10;}
	.st3{fill:#231F20;}
	.st4{font-family:'CambriaMath';}
	.st5{font-size:24px;}
	.st6{fill:none;stroke:#EC008C;stroke-width:3;stroke-miterlimit:10;}
</style>
<g>
	<path class="st0" d="M719.2,289.7c0-0.2,0-0.4,0-0.6c-0.1-2,0-4.1,0.1-6.1c-0.1-1-0.1-2-0.2-3.1c-0.1-1.7,0-3.3,0-4.9
		c-0.1-1.4-0.2-2.7-0.3-4.1c-0.1-2.4,0-4.7,0.1-7c-0.1-2.7,0-5.4,0.2-8c-0.1-1.6-0.3-3.2-0.3-4.7c-0.1-3.3,0-6.5,0.4-9.6
		c0-1.3,0-2.6,0-3.9c0-1.8,0-3.6,0.1-5.4c-0.1-1.5-0.2-3-0.3-4.5c-0.1-2.8,0-5.6,0.2-8.4c0-0.6-0.1-1.3-0.1-1.9c0-1.1,0-2.1,0-3.2
		c-0.1-1.6-0.3-3.2-0.3-4.8c-0.1-2.7,0-5.4,0.2-8.1c-0.1-1.1-0.2-2.2-0.2-3.3c-0.2-4.2,0.1-8.2,0.7-12.2c-0.5-3.1-0.8-6.1-1-9.2
		c-2.8,1.2-5.6,2.3-8.5,3.2c-6.6,4.5-14,8-21.7,10.4c-5.7,4.4-12,8.1-18.7,10.9c-5,3.9-10.5,7.3-16.3,10c-3.4,3.2-7.2,6.1-11.2,8.7
		c-1.4,1.6-2.9,3.2-4.5,4.6c-1.8,1.8-3.6,3.4-5.6,5c-1.5,1.7-3.1,3.4-4.8,5c-2,2-4.2,4-6.5,5.8c-2.6,4.7-5.8,9-9.6,12.9
		c-2.9,5.2-6.6,10-11.1,14.2c-2.3,5.7-5.4,11-9.3,15.8c-1.9,5.8-4.7,11.2-8.2,16c0.1,0.1,0.1,0.2,0.2,0.3c4.3-0.7,8.5-1.1,12.8-1.1
		c3.2,0,6.4,0.2,9.5,0.6c4.2-0.7,8.4-1.1,12.5-1.1c3.2,0,6.3,0.2,9.4,0.6c3.7-0.6,7.4-0.9,11.1-0.9c2.4,0,4.8,0.1,7.2,0.4
		c1.3-0.1,2.5-0.1,3.8-0.1c2.6,0,5.1,0.1,7.6,0.4c4.7-0.9,9.4-1.4,14.1-1.4c5.9,0,11.6,0.7,17,1.9c2.7-0.3,5.3-0.4,8-0.4
		c3.2,0,6.4,0.2,9.5,0.6c2.3-0.2,4.7-0.4,7-0.4c0.5,0,0.9,0,1.4,0c2-0.4,4-0.7,6-0.9c0-0.8-0.1-1.5-0.1-2.3
		C719.1,293.6,719.1,291.6,719.2,289.7z"/>
	<path class="st0" d="M689.1,229.4L689.1,229.4C689.1,229.4,689.1,229.4,689.1,229.4C689.6,228.4,689.6,228.5,689.1,229.4z"/>
</g>
<line class="st1" x1="718.1" y1="177.9" x2="718" y2="297.6"/>
<g>
	<g>
		<line class="st2" x1="55.6" y1="297.6" x2="784.2" y2="297.6"/>
		<g>
			<polygon class="st3" points="774.3,306.1 782.7,297.6 774.3,289.2 781.5,289.2 789.9,297.6 781.5,306.1 			"/>
		</g>
	</g>
</g>
<line class="st2" x1="271" y1="297.6" x2="271" y2="155.9"/>
<line class="st2" x1="271" y1="297.6" x2="271" y2="439.4"/>
<line class="st2" x1="583" y1="297.6" x2="583" y2="439.4"/>
<line class="st2" x1="583" y1="297.6" x2="583" y2="155.9"/>
<text transform="matrix(1 0 0 1 284 448)" class="st4 st5">1.00</text>
<text transform="matrix(1 0 0 1 597 448)" class="st4 st5">11.00</text>
<path class="st6" d="M62,162.4c47.5-6.4,94.8,10.6,131.8,37.6c27.7,29,52.4,59,77.1,93c4,5.5,6.9,8.2,9.2,11
	c11.6,13.7,28,34.7,48.3,65.8c3,3.6,7.1,8.2,12.5,13.1c0,0,2.3,2.1,4.9,4.1c37,29.7,66.8,37,66.8,37c22.6,7,47.3,6,69.9-3
	c15.4-7,29.8-17,41.1-30c28.7-33,49.1-68.8,64.7-101c3.4-6.9,12.2-25.6,29.9-45.7c3.9-4.4,7.4-7.9,9.7-10.2
	c3.4-3.7,7.4-7.6,11.9-11.6c4.6-4.1,9.1-7.5,13.2-10.5c8.2-5,14.4-9,22.6-14c23.5-13.2,46.5-23,71.1-29.4c15.3-4,28.2-5.8,33.8-6.6
	c7.3-1,13.6-1.5,18.5-1.8"/>
</svg>
