<?xml version="1.0" encoding="utf-8"?>
<!-- Generator: Adobe Illustrator 19.0.1, SVG Export Plug-In . SVG Version: 6.00 Build 0)  -->
<svg version="1.1" id="Слой_1" xmlns="http://www.w3.org/2000/svg" xmlns:xlink="http://www.w3.org/1999/xlink" x="0px" y="0px"
	 viewBox="0 0 841.9 595.3" style="enable-background:new 0 0 841.9 595.3;" xml:space="preserve">
<style type="text/css">
	.st0{fill:none;stroke:#231F20;stroke-width:5;stroke-miterlimit:10;}
	.st1{fill:#231F20;}
	.st2{font-family:'CambriaMath';}
	.st3{font-size:24px;}
	.st4{fill:none;stroke:#EC008C;stroke-width:3;stroke-miterlimit:10;}
</style>
<g>
	<g>
		<line class="st0" x1="55.6" y1="297.6" x2="784.2" y2="297.6"/>
		<g>
			<polygon class="st1" points="774.3,306.1 782.7,297.6 774.3,289.2 781.5,289.2 789.9,297.6 781.5,306.1 			"/>
		</g>
	</g>
</g>
<line class="st0" x1="271" y1="297.6" x2="271" y2="155.9"/>
<line class="st0" x1="271" y1="297.6" x2="271" y2="439.4"/>
<line class="st0" x1="583" y1="297.6" x2="583" y2="439.4"/>
<line class="st0" x1="583" y1="297.6" x2="583" y2="155.9"/>
<text transform="matrix(1 0 0 1 284 448)" class="st2 st3">1.00</text>
<text transform="matrix(1 0 0 1 597 448)" class="st2 st3">11.00</text>
<path class="st4" d="M62,162.4c47.5-6.4,94.8,10.6,131.8,37.6c27.7,29,52.4,59,77.1,93c4,5.5,6.9,8.2,9.2,11
	c11.6,13.7,28,34.7,48.3,65.8c3,3.6,7.1,8.2,12.5,13.1c0,0,2.3,2.1,4.9,4.1c37,29.7,66.8,37,66.8,37c22.6,7,47.3,6,69.9-3
	c15.4-7,29.8-17,41.1-30c28.7-33,49.1-68.8,64.7-101c3.4-6.9,12.2-25.6,29.9-45.7c3.9-4.4,7.4-7.9,9.7-10.2
	c3.4-3.7,7.4-7.6,11.9-11.6c4.6-4.1,9.1-7.5,13.2-10.5c8.2-5,14.4-9,22.6-14c23.5-13.2,46.5-23,71.1-29.4c15.3-4,28.2-5.8,33.8-6.6
	c7.3-1,13.6-1.5,18.5-1.8"/>
</svg>
