<?xml version="1.0" encoding="utf-8"?>
<!-- Generator: Adobe Illustrator 19.0.1, SVG Export Plug-In . SVG Version: 6.00 Build 0)  -->
<svg version="1.1" id="Слой_1" xmlns="http://www.w3.org/2000/svg" xmlns:xlink="http://www.w3.org/1999/xlink" x="0px" y="0px"
	 viewBox="0 0 841.9 595.3" style="enable-background:new 0 0 841.9 595.3;" xml:space="preserve">
<style type="text/css">
	.st0{fill:#CCF8FF;}
	.st1{fill:none;stroke:#10DDFF;stroke-width:3;stroke-miterlimit:10;}
	.st2{fill:none;stroke:#231F20;stroke-width:5;stroke-miterlimit:10;}
	.st3{fill:#231F20;}
	.st4{font-family:'CambriaMath';}
	.st5{font-size:24px;}
	.st6{fill:none;stroke:#D125D6;stroke-width:3;stroke-miterlimit:10;}
	.st7{fill:none;stroke:#00AEEF;stroke-width:3;stroke-miterlimit:10;}
	.st8{fill:none;stroke:#EC008C;stroke-width:3;stroke-miterlimit:10;}
</style>
<g>
	<path class="st0" d="M645.2,287.3c0-0.2,0-0.5,0-0.7c-0.1-2.3,0-4.6,0.1-6.9c-0.1-1.2-0.2-2.3-0.2-3.5c-0.1-1.9,0-3.7,0-5.6
		c-0.1-1.6-0.2-3.1-0.3-4.7c-0.1-2.7,0-5.4,0.1-8c-0.1-3.1,0-6.1,0.2-9.1c-0.1-1.8-0.3-3.6-0.3-5.4c-0.1-3.7,0-7.4,0.4-11
		c0-1.5,0-2.9,0-4.4c0-2.1,0-4.1,0.1-6.2c-0.1-1.7-0.2-3.4-0.3-5.1c-0.1-3.2,0-6.4,0.2-9.5c0-0.7-0.1-1.4-0.1-2.1c0-1.2,0-2.4,0-3.6
		c-0.2-1.8-0.3-3.7-0.3-5.5c-0.1-3.1,0-6.2,0.2-9.2c-0.1-1.2-0.2-2.5-0.2-3.7c-0.2-4.8,0.1-9.4,0.8-13.9c-0.5-3.5-0.8-7-1-10.5
		c-2.9,1.4-5.8,2.6-8.8,3.6c-6.8,5.1-14.5,9.1-22.4,11.8c-5.8,5-12.4,9.2-19.3,12.4c-5.1,4.5-10.8,8.3-16.8,11.4
		c-3.5,3.7-7.4,7-11.5,9.9c-1.4,1.8-3,3.6-4.6,5.3c-1.8,2-3.7,3.9-5.8,5.7c-1.5,2-3.2,3.9-4.9,5.7c-2.1,2.3-4.4,4.5-6.7,6.6
		c-2.6,5.3-6,10.2-9.9,14.7c-3,5.9-6.8,11.3-11.4,16.2c-2.4,6.5-5.5,12.5-9.6,18c-2,6.6-4.8,12.7-8.5,18.3c0.1,0.1,0.1,0.2,0.2,0.3
		c4.4-0.8,8.8-1.3,13.2-1.3c3.3,0,6.6,0.2,9.8,0.7c4.3-0.8,8.6-1.3,12.9-1.3c3.3,0,6.5,0.3,9.7,0.7c3.8-0.6,7.7-1,11.5-1
		c2.5,0,5,0.1,7.4,0.4c1.3-0.1,2.6-0.1,3.9-0.1c2.7,0,5.3,0.2,7.9,0.4c4.8-1,9.7-1.6,14.5-1.6c6.1,0,11.9,0.8,17.6,2.2
		c2.7-0.3,5.5-0.5,8.2-0.5c3.3,0,6.6,0.2,9.8,0.7c2.4-0.3,4.8-0.4,7.2-0.4c0.5,0,0.9,0,1.4,0c2-0.5,4.1-0.8,6.1-1.1
		c-0.1-0.9-0.1-1.7-0.1-2.6C645.1,291.7,645.1,289.5,645.2,287.3z"/>
	<path class="st0" d="M614.2,218.7L614.2,218.7C614.2,218.6,614.2,218.6,614.2,218.7C614.7,217.6,614.7,217.6,614.2,218.7z"/>
</g>
<line class="st1" x1="529" y1="184.3" x2="529" y2="297.7"/>
<g>
	<g>
		<line class="st2" x1="55.6" y1="297.6" x2="784.2" y2="297.6"/>
		<g>
			<polygon class="st3" points="774.3,306.1 782.7,297.6 774.3,289.2 781.5,289.2 789.9,297.6 781.5,306.1 			"/>
		</g>
	</g>
</g>
<line class="st2" x1="202" y1="297.6" x2="202" y2="155.9"/>
<line class="st2" x1="202" y1="297.6" x2="202" y2="439.4"/>
<line class="st2" x1="509" y1="297.6" x2="509" y2="439.4"/>
<line class="st2" x1="509" y1="297.6" x2="509" y2="155.9"/>
<text transform="matrix(1 0 0 1 215 447.98)" class="st4 st5">22.00</text>
<text transform="matrix(1 0 0 1 523 447.98)" class="st4 st5">7.00</text>
<path class="st6" d="M11,152.6c14.6,2.3,44,6.9,82,12.7c52.7,7.9,63.3,9.1,74.5,19c13,11.5,9.4,19.3,26.1,91
	c4,17,11.5,46.8,26.8,106.3c5.6,21.8,8.4,32.7,9.8,35c39.9,64.9,237.6,42.1,262-24.1c1.6-4.2,3.8-17.4,8.3-43.8
	c4.4-25.6,5.2-35.2,10.5-66c1-5.8,1.3-7.6,6-33c12-65.3,11.8-64.9,12-65.5c6.4-22.4,54.3-45.7,247.3-44"/>
<line class="st7" x1="644.1" y1="158.8" x2="644" y2="296.6"/>
<path class="st8" d="M-11.5,151.3c22.8,5.4,49.1,13.4,77.5,25.5c22.5,9.6,42.2,20,59,30c17.6,13.3,30.6,25.9,39.5,35.5
	c16.9,18.2,30.7,37.7,32.4,40.1c0.2,0.4,1.3,2,2.9,4.1c2.6,3.3,4.6,5.5,6.3,7.7c11.6,14.7,28,37.2,48.3,70.4c3,3.9,7.1,8.8,12.5,14
	c0,0,2.3,2.2,4.9,4.4c37,31.8,66.8,39.6,66.8,39.6c22.6,7.5,47.3,6.4,69.9-3.2c15.4-7.5,29.8-18.2,41.1-32.1
	c28.7-35.3,49.1-73.6,64.7-108.1c3.4-7.4,12.2-27.4,29.9-48.9c3.9-4.8,7.4-8.5,9.7-10.9c3.4-4,7.4-8.2,11.9-12.4
	c4.6-4.3,9.1-8.1,13.2-11.2c8.2-5.4,14.4-9.6,22.6-15c23.5-14.1,46.5-24.6,71.1-31.5c15.4-4.3,28.5-6.3,33.8-7.1
	c7.3-1,13.6-1.6,18.5-2"/>
</svg>
