<svg viewBox="0 0 1000 544" xmlns="http://www.w3.org/2000/svg" fill-rule="evenodd" clip-rule="evenodd" stroke-linejoin="round" stroke-miterlimit="2"><path d="M241.62 537.705c-72.034-14.877-134.671-59.506-159.726-111.965-8.613-18.008-20.357-28.97-34.451-32.102C3.597 385.026 2.814 382.677.465 293.418c-2.349-91.607 3.132-106.484 41.497-106.484 14.877 0 24.272-7.047 33.668-24.272 18.791-35.234 63.421-80.646 93.956-96.305 173.037-88.476 487.791-88.476 660.828 0 30.535 15.659 75.165 61.071 93.956 96.305 9.396 17.225 18.791 24.272 33.668 24.272 38.365 0 43.846 14.877 41.497 106.484-2.349 89.259-3.132 91.608-46.978 101.003-14.094 2.349-26.621 13.311-34.451 29.753-41.497 79.08-148.764 130.756-235.674 113.531-57.157-10.962-103.352-37.583-138.586-78.297-18.008-21.14-37.582-37.583-43.846-37.583-6.264 0-25.838 16.443-43.846 37.583-33.668 39.148-82.212 67.335-128.407 75.948-14.877 3.132-32.885 6.264-39.149 7.83-6.264.783-27.404-1.566-46.978-5.481z" fill="#f4f6f7"/><path d="M319.134 436.702c13.31-4.698 24.272-11.745 24.272-15.66 0-3.915 3.915-7.046 7.83-7.046 4.697 0 25.055-17.226 46.195-39.149 40.714-41.497 65.769-54.808 103.352-54.808 33.668 0 51.676 10.962 101.786 62.638 76.731 77.514 147.199 81.429 216.1 10.961 33.668-35.233 33.668-35.233 33.668-111.181 0-46.979 3.132-79.863 8.612-85.344 7.047-7.047 4.698-7.83-7.829-4.698-12.528 3.132-24.272-2.349-42.281-21.14-13.31-13.311-25.838-21.14-27.404-16.443-1.566 4.698-7.829 8.613-14.093 8.613-7.047 0-9.396 3.915-7.047 7.83 2.349 4.698.783 7.829-3.915 7.829s-6.264 3.915-3.915 7.83c2.349 4.698.783 7.83-3.914 7.83-4.698 0-6.264 3.915-3.915 7.83 2.349 4.697.783 7.829-3.915 7.829s-6.264 3.915-3.915 7.83c2.349 4.698.783 7.83-3.915 7.83s-6.264 3.915-3.915 7.829c2.349 4.698.783 7.83-3.915 7.83-4.697 0-6.263 3.915-3.914 7.83 2.348 4.698 1.566 7.83-2.349 7.83s-6.264 7.829-6.264 18.008c.783 12.527-3.915 18.008-18.008 19.574-32.885 4.698-32.885-9.396-.783-76.731 18.008-36.017 30.535-70.467 29.752-77.514-4.697-24.272-25.838-11.745-49.327 29.753-27.404 49.327-45.412 64.203-60.288 49.327-7.83-7.83-7.83-14.876 0-32.885 5.48-13.31 14.093-34.451 18.791-46.978 11.744-28.97 1.566-39.149-37.583-39.149-13.31 0-25.838-2.348-28.97-4.697-8.612-8.613-154.245-9.396-154.245-1.566 0 4.697-10.961 6.263-27.404 3.132-15.659-3.132-27.404-2.349-27.404 2.348 0 3.915-7.046 5.481-15.659 3.132-8.613-2.349-15.659-.783-15.659 3.132s-11.745 7.047-26.621 7.047c-14.094 0-32.102 6.264-39.932 13.31-7.047 7.047-16.442 11.745-20.357 8.613-10.179-6.264-39.149 4.698-34.451 12.528 2.349 3.915-3.915 7.829-13.31 9.395-10.179 1.566-18.009 7.047-18.009 12.528 0 6.264-6.263 14.876-13.31 20.357-11.745 8.613-14.094 23.489-14.094 93.957 0 79.08.783 84.56 20.358 106.483 25.055 27.404 77.514 54.808 105.701 54.808 10.961 0 31.318-3.914 45.412-8.612z" fill="#ff4500" fill-rule="nonzero"/><path d="M241.62 537.705c-72.034-14.877-134.671-59.506-159.726-111.965-8.613-18.008-20.357-28.97-34.451-32.102C3.597 385.026 2.814 382.677.465 293.418c-2.349-91.607 3.132-106.484 41.497-106.484 14.877 0 24.272-7.047 33.668-24.272 18.791-35.234 63.421-80.646 93.956-96.305 173.037-88.476 487.791-88.476 660.828 0 30.535 15.659 75.165 61.071 93.956 96.305 9.396 17.225 18.791 24.272 33.668 24.272 38.365 0 43.846 14.877 41.497 106.484-2.349 89.259-3.132 91.608-46.978 101.003-14.094 2.349-26.621 13.311-34.451 29.753-41.497 79.08-148.764 130.756-235.674 113.531-57.157-10.962-103.352-37.583-138.586-78.297-18.008-21.14-37.582-37.583-43.846-37.583-6.264 0-25.838 16.443-43.846 37.583-33.668 39.148-82.212 67.335-128.407 75.948-14.877 3.132-32.885 6.264-39.149 7.83-6.264.783-27.404-1.566-46.978-5.481zM170.993 392.21l1.493 1.293.515.45 1.517 1.341.383.342 1.311 1.18.997.904 1.603 1.466 1.748 1.617 1.554 1.448 1.107 1.022 1.048.947.571.509 1.394 1.218.888.761 1.211 1.016 1.03.848.484.391 1.415 1.13 1.068.834.535.411 1.385 1.049 1.105.818.606.443 1.332.957 1.141.802.703.487 1.252.853 1.175.784 1.337.874 1.601 1.02 1.58.983 1.138.691.537.322 1.549.913 1.17.673.592.336 1.501.838 1.201.655.671.36 1.427.754 1.23.634.765.388 1.007.504 1.588.776.691.331 1.412.666 1.285.59.67.303 1.431.636 1.31.567.667.283 1.731.721 1.035.42.649.258 1.776.693 1.026.39.655.244 1.798.656 1.021.362.655.227 1.822.619 1.669.546 1.805.566 1.664.504 1.214.354.671.191 1.086.304 1.525.412 1.011.264.709.18 1.789.442.997.236.705.162 1.81.403.979.208.7.143 1.571.312 1.215.231.696.125 1.116.197.726.123.935.153 1.68.257.915.133 1.447.197 1.091.138.905.108 1.374.153 1.158.117.888.084 1.37.118 1.108.083.917.063.794.049.929.051 1.233.058 1.254.046.848.024 1.2.024 1.273.012.815.001-1.85-.012-1.438-.025-1.868-.062-1.467-.066-.907-.05-1.591-.103-1.57-.121-1.465-.131-1.16-.114-.781-.08-1.517-.174-1.046-.13-.849-.109-1.548-.216-1.624-.244-1.376-.22-1.837-.317-1.371-.253-.47-.09-1.657-.326-1.685-.353-1.801-.4-1.695-.395-1.796-.443-1.7-.438-1.416-.382-1.105-.307-1.481-.426-.89-.262-1.253-.379-1.29-.404-.96-.306-1.25-.409-1.807-.612-1.683-.591-1.789-.651-1.68-.632-1.779-.694-1.671-.672-1.749-.726-1.811-.778-1.595-.705-1.794-.819-1.471-.69-1.692-.817-.679-.332-1.045-.52-1.592-.816-.694-.359-1.19-.629-1.381-.749-.732-.4-1.252-.699-1.248-.714-.772-.447-1.284-.757-1.141-.689-.813-.496-1.295-.806-1.05-.669-.904-.581-.417-.273-1.351-.895-.631-.422-.952-.648-1.501-1.048-.642-.453-1.114-.8-1.256-.926-.676-.502-1.157-.877-1.13-.877-.708-.554-1.174-.937-1.028-.841-.776-.641-.371-.312-1.102-.936-.57-.49-1.123-.982-1.301-1.168-.567-.514-.785-.725-1.256-1.171-1.101-1.022-1.076-.993-1.052-.965-1.476-1.34-.072-.065-.256-.233-1.022-.918-.033-.029-.16-.144-1.493-1.323-1.328-1.161-.861-.741-.066-.057zm625.537 80.62l.095-.043.857-.398.801-.376.864-.411 1.431-.692 1.71-.848 1.574-.799-1.716.869-.594.293-.093.047-1.127.556-.087.043-1.098.531-.845.402-.071.034-.045.021-.031.015-.688.322-.937.434-.61.277-.579.265 1.159-.528.03-.014zM656 424.735l-.014-.008.036.021-.022-.013zm292.114-178.623c0-6.733-5.466-12.2-12.199-12.2h-24.4c-6.734 0-12.2 5.467-12.2 12.2v85.216c0 6.734 5.466 12.2 12.2 12.2h24.4c6.733 0 12.199-5.466 12.199-12.2v-85.216zm-847.429 0c0-6.733-5.466-12.2-12.2-12.2h-24.4c-6.733 0-12.199 5.467-12.199 12.2v85.216c0 6.734 5.466 12.2 12.199 12.2h24.4c6.734 0 12.2-5.466 12.2-12.2v-85.216zm580.21 190.242l-.028-.01-.499-.181-.051-.019-.498-.181-.523-.196-1.305-.495-1.416-.556-1.714-.696-.064-.026-.136-.056-1.425-.601-1.331-.572-.828-.366-.829-.371-.472-.216-.321-.146-.029-.013-.836-.387-1.557-.737-.67-.324-1.103-.538-1.923-.965-.024-.012-.069-.035-1.181-.61-.162-.086-.041-.021-1.333-.703-1.371-.738-1.485-.818-.746-.421-.703-.396-.601-.343-.333-.194-.045-.026-1.504-.874-1.21-.72-.286-.174-1.136-.686-.164-.101-.003-.002-.626-.386-.203-.127-1.509-.943-.116-.074-.08-.05-1.721-1.102-.549-.356-1.721-1.134-.207-.139-.61-.408-.063-.043-.158-.106-1.298-.884-.597-.407-1.404-.978-.747-.525-1.766-1.262-.02-.014-1.116-.812-.165-.12-.02-.015-.184-.133-1.639-1.214-.236-.178-.101-.075-.324-.245-.817-.616-.7-.533-1.357-1.042-1.079-.842-1.537-1.215-.573-.458-.809-.651-.039-.033-.443-.356-.084-.068-.115-.093-.479-.392-.992-.812-1.673-1.39-1.01-.851-.301-.257-.027-.022-.197-.169-1.121-.955-.321-.276-1.538-1.335-.567-.497-1.249-1.103-.065-.057-.012-.011-.081-.071-1.467-1.313-.004-.004-.096-.086 1.478 1.324.182.161.006.006.059.051 1.072.948.177.155.306.27 1.011.882.9.778.209.178.337.289 1.253 1.067 1.066.898 1.669 1.387.004.003.144.119.848.693.398.326.081.066.116.094.565.456.622.501.187.15.32.258 1.011.802 1.013.797.845.658.819.632 1.639 1.249 1.223.917 1.639 1.213 1.339.972.194.14 1.457 1.04 1.378.97.943.653.562.383 1.2.818.098.066.179.122 1.025.685 1.718 1.131 1.169.754 1.315.836 1.658 1.034.748.459c.851.52 1.702 1.03 2.55 1.53l1.535.895 1.262.722 1.287.723 1.333.732 1.113.602 1.223.649.368.19.158.083.045.024.172.09 1.009.52.06.031.033.016.09.046.839.425 1.201.598.896.434.523.255.147.069.06.029 1.497.708.879.406.76.347.864.387.812.359 1.158.5.173.072.285.123 1.239.52 1.635.665.474.189 1.122.438.994.379.311.116.318.12 1.091.401.824.296.671.237-.783-.277-.522-.19zm-252.382-21.427l-1.001 1.012-1.223 1.242-1.379 1.403 1.62-1.648 1.6-1.623 3.138-3.165 1.54-1.543 1.521-1.517 1.102-1.094 2.465-2.431 1.538-1.506 2.284-2.216 1.352-1.3 1.357-1.297a436.576 436.576 0 013.805-3.577l.836-.774c1.24-1.144 2.46-2.254 3.661-3.329l.873-.777.897-.793 1.078-.944 1.025-.889.591-.507 1.13-.963c.794-.671 1.579-1.325 2.353-1.959l1.75-1.416 1.658-1.308.345-.267 1.456-1.118 1.181-.882c.389-.288.776-.571 1.163-.849l.877-.624.774-.545 1.342-.922 1.139-.758 1.128-.73.51-.321.921-.571 1.219-.731 1.2-.692.453-.252 1.079-.588.535-.284 1.037-.531 1.12-.547 1.104-.512 1.164-.511 1.422-.58.918-.349 1.028-.368c.38-.131.76-.256 1.138-.375l.825-.249 1.037-.293c.608-.163 1.215-.31 1.819-.442l.664-.141 1.061-.198.905-.146 1.013-.135 1.002-.107.939-.075.988-.053.437-.014.973-.014 1.017.016 1.004.043.985.069 1.055.105 1.075.137.975.152.984.179 1.179.247.483.113 1.265.326 1.076.308.669.205 1.212.406 1.094.395 1.03.399.232.094 1.432.606 1.021.459.828.391.754.369 1.374.699.838.45.641.349 1.182.672 1.377.815 1.414.877.588.373 1.03.67 1.095.732.516.353 1.002.696.725.513 1.119.803c1.742 1.27 3.52 2.633 5.341 4.09l1.163.942.947.773c.963.793 1.938 1.611 2.926 2.456l1.047.9 1.036.9.846.742.638.564 1.163 1.038 1.424 1.284 1.637 1.495 1.684 1.558.847.79a443.23 443.23 0 013.559 3.369l.403.385 1.412 1.358 1.412 1.368-1.412-1.368 1.393 1.349 1.31 1.278.817.799.95.935 1.36 1.343 2.07 2.057 2.22 2.219-2.158-2.158-.062-.061-.014-.014-.311-.31-1.745-1.733.369.365 1.376 1.368.243.242.068.068.324.322 2.178 2.18 1.559 1.569a1424.66 1424.66 0 016.44 6.542l1.893 1.926 1.789 1.81c.914.923 1.817 1.832 2.712 2.727l2.129 2.128.31.307a728.308 728.308 0 005.589 5.502l2.414 2.337 1.634 1.568 1.969 1.871 1.033.974a442.668 442.668 0 004.395 4.077l.037.033c1.054.965 2.095 1.906 3.121 2.823l2.08 1.844 1.827 1.594 1.425 1.224.549.467c.801.68 1.594 1.346 2.381 1.998l1.934 1.586 1.358 1.093 1.235.977a193.131 193.131 0 004.34 3.314l1.689 1.235.363.261c.862.619 1.717 1.22 2.568 1.806l.989.674 1.328.888 1.751 1.137 1.253.792 1.044.643 1.451.873 1.244.727 1.241.706.911.505c.773.425 1.545.838 2.317 1.24l.503.26 1.316.666 1.283.629 1.118.532-1.193-.569-.322-.158-.033-.016-.607-.299-.013-.006-.363-.178-1.203-.61-.318-.165.886.451.998.502.653.321 1.436.689c.868.409 1.739.804 2.613 1.188l1.594.685c.849.357 1.702.704 2.558 1.04l1.671.642 1.966.718 1.757.61 1.313.437 2.251.714 1.299.392c.827.245 1.66.484 2.5.718l.69.19 1.386.371.894.249 1.974.534 1.876.482 2.057.506 2.227.517 2.028.445.63.134 1.898.388 1.586.309 2.498.453 1.711.291 2.365.373 1.465.216 2.201.3 1.365.173c.549.067 1.099.132 1.649.194l1.123.122 2.045.209 2.061.186 2.003.16 1.534.107 1.477.091.937.051 2.017.095 1.238.047c1.838.064 3.676.101 5.518.112l1.142.003h-.011.026-.015l1.661-.009 1.991-.029 1.561-.038 2.131-.071 1.802-.08 1.891-.101 1.512-.095c1.21-.08 2.419-.172 3.627-.276l.936-.083 1.536-.146 2.106-.219 2.068-.238.991-.121 1.964-.258c.565-.078 1.129-.157 1.695-.239l1.649-.248 1.522-.241.049-.008 1.504-.251 1.709-.3 1.267-.232 1.76-.337 1.299-.263.247-.049.083-.018.2-.04 1.611-.339 1.615-.355.719-.163-.989.222-1.805.393-.531.111-.802.168-.348.07-1.674.334-1.583.302-1.187.217-1.822.318-1.321.22-1.285.203-1.887.286 2.095-.319h.001l1.549-.25 1.239-.208 1.079-.189.784-.14 1.649-.309.711-.135 1.986-.398.816-.17.541-.114 1.224-.266 1.486-.33 1.512-.35c.525-.124 1.049-.251 1.573-.379l1.657-.417 1.48-.383 1.864-.499 1.597-.445.917-.263 1.434-.419 1.123-.337 1.846-.569 2.093-.669 1.426-.472 1.881-.643.606-.213 1.634-.58 1.631-.598.85-.319 1.473-.56.921-.357c.603-.236 1.205-.475 1.802-.717l1.444-.59 1.555-.65 1.322-.566.674-.293c.45-.197.898-.395 1.346-.595l1.335-.606 1.028-.472 1.238-.576.116-.055 2.029-.975 1.221-.604.805-.4 1.286-.651 1.228-.634 1.507-.795c.829-.442 1.654-.89 2.475-1.344l.886-.496 1.004-.565.858-.489c.651-.375 1.301-.755 1.948-1.138l1.392-.835 1.008-.614 1.559-.966.953-.601 1.323-.85 1.379-.901 1.733-1.159 1.596-1.094 1.334-.934 1.207-.861.819-.592a163.67 163.67 0 001.904-1.404l.792-.596 1.165-.891.868-.675.866-.679a170.786 170.786 0 003.007-2.433l1.389-1.162 1.258-1.073 1.47-1.282c.451-.397.902-.799 1.351-1.204l1.019-.924 1.272-1.152c.807-.732 1.594-1.455 2.363-2.168l1.258-1.175.659-.621c.437-.414.868-.824 1.289-1.228l.629-.607a188.525 188.525 0 002.419-2.379l.58-.583a153.276 153.276 0 002.863-2.966l1.246-1.346.221-.244.473-.522.006-.007.096-.108.062-.069.837-.946.451-.519.791-.932.049-.059.09-.107.895-1.086.806-1.011.722-.938.705-.947.663-.925.629-.913.39-.585-.548.814-.646.928-.114.157-.105.148-.185.252-.317.436-.576.771-.434.557-.298.387-.115.143-.018.024-.742.924-.792.959-.85 1.003-.695.795-.217.245-.438.494-.006.006-.095.107-.16.176-.314.348-.257.284-1.21 1.306-.642.679-.041.043-.039.041c-.216.227-.435.455-.656.684l.695-.725.683-.722.868-.937.913-1.001.255-.283.444-.5.221-.249.691-.791.84-.991.802-.971.76-.948.413-.53.6-.78.727-.984.29-.4.32-.453.479-.69.509-.756.31-.479.301-.475.291-.473.282-.471.561-.979.473-.875.496-.986.388-.829.198-.448.453-1.111.071-.187c.118-.312.229-.622.332-.931l.265-.836c.076-.256.147-.511.213-.766l.184-.752.265-1.377.149-1.153.081-1.16.015-.6-.015-.912-.056-.907-.041-.412-.131-.969-.146-.796a20.19 20.19 0 00-.533-2.049l-.285-.838-.139-.382a23.465 23.465 0 00-.553-1.332l-.031-.067.317.728-.208-.477-.314-.685-.192-.402a28.04 28.04 0 00-.854-1.589l-.292-.495a38.345 38.345 0 00-2.532-3.678l-.327-.419-.686-.849c-.366-.444-.746-.89-1.141-1.339l-.698-.781-.928-1-.752-.784-.376-.385 1.015 1.052.164.176.116.122.576.62.02.022.165.177.698.781.343.394.803.951.681.843.327.419-.462-.587-.546-.675-.803-.951-.538-.612-.668-.74-.712-.764-.449-.472-.71-.735a388.535 388.535 0 00-3.951-3.928l-1.088-1.049c-.357-.341-.706-.67-1.047-.986-1.065-.983-2.058-1.843-3.003-2.571a19.583 19.583 0 00-2.334-1.568l-.497-.265a9.64 9.64 0 00-1.942-.753 7.896 7.896 0 00-.701-.151 7.398 7.398 0 00-1.14-.103h-.149l-.563.033-.303.03-.526.084-.674.161-.708.228-.442.171-.53.235-.536.266-.465.258-.425.242-.3.188-.594.386-.474.33-.54.39-.736.563c-4.477 5.461-10.197 11.448-17.503 19.093a246.827 246.827 0 01-13.381 12.731l-.895.784 1.349-1.268c.354-.336.708-.674 1.062-1.016l.56-.541a198.13 198.13 0 001.54-1.512l.431-.43.037-.037.018-.018.299-.298.585-.59 1.413-1.443.497-.518.162-.167.642-.67.049-.051.064-.067.961-1.017-1.025 1.084-.853.888-.303.313-.343.357-.175.178-.046.047-1.133 1.157-.794.797-.055.055-.571.568-1.4 1.374-.56.541-1.062 1.016-1.449 1.36-1.368 1.257-1.359 1.226-1.352 1.195-1.069.929-1.231 1.048-1.091.917-1.502 1.232-1.505 1.208-1.201.939-1.053.813-1.391 1.048-.738.547-.79.578-1.217.876-.86.609-.725.504-.878.604-.737.5-.784.523-1.06.698-.439.284-1.242.794-1.454.905-.616.375c-10.286 6.235-20.796 10.734-31.497 13.507l-1.929.481-.128.03-.036.009-.995.231c-.949.216-1.897.418-2.848.606l-1.13.217-.824.148-.528.094-.467.079-1.411.229-.366.055-1.496.216-1.548.199-1.562.176-1.476.146-.492.041-.854.072-1.221.088-1.532.091-1.979.082-1.646.039-1.171.013 1.33-.014 1.487-.038.527-.019 1.467-.064 1.517-.09 1.316-.095.759-.065.448-.037.044-.004.086-.008 1.417-.141 1.535-.173 1.543-.199 1.734-.249.133-.022.189-.028.143-.023.456-.072.05-.008.573-.098.23-.037.008-.001.229-.041.07-.012.458-.082.634-.113.153-.028.037-.007.165-.03.965-.187a94.755 94.755 0 001.961-.408l.128-.028.228-.05.377-.084.154-.036.015-.003.861-.2.119-.028.101-.024.063-.015.138-.034 1.205-.297.586-.15.119-.03-.562.145-.143.035a88.13 88.13 0 01-1.205.297l-.14.035-.061.014-.034.009-.186.043c-.287.068-.574.134-.861.2l-.169.039-.377.084-.079.018-.149.032-.068.015-.06.013c-.974.213-1.949.411-2.926.595l-.202.037-.04.007-.113.021-1.044.189-.347.059-.811.136-.041.007-.041.007-.424.066-.129.021-.014.002-.276.043-.279.04-.655.099-.679.096-.162.021-.19.027-1.618.205-1.669.184-1.155.11-1.205.101-1.466.106-.704.043-.703.038c-.651.033-1.303.06-1.954.081-39.204 2.042-79.525-18.326-121.743-60.974l-1.743-1.794-1.861-1.908-1.405-1.435 1.325 1.352.08.083.214.218 1.837 1.885c.514.528 1.032 1.061 1.553 1.599l.89.887-.89-.887 1.246 1.239 1.067 1.05.895.876.663.645 1.685 1.622 1.38 1.314 1.634 1.534 1.244 1.154 1.209 1.109 1.511 1.37 1.552 1.388 1.3 1.148.761.666 1.373 1.192 1.439 1.228.224.191 1.433 1.21 1.551 1.288 1.586 1.297.527.424.817.658.771.615 1.422 1.124 1.42 1.104 1.219.935 1.262.954.425.32 1.059.788 1 .737.185.135 1.271.922 1.773 1.265 1.679 1.174.92.633.004.002 1.459.992.673.451.228.153 1.708 1.126 1.17.752 1.172.75 1.625 1.017.224.14.608.375 1.3.787.324.197 1.205.716 1.516.881.712.41.925.523.895.503 1.336.736 1.843.987.902.475 1.436.743 1.935.971 1.77.86.959.455 1.443.673.332.151.472.215.829.372.828.366 1.331.572 1.561.657 1.778.722 1.416.556 1.246.473 1.08.399.578.21 1.305.467 1.051.363 1.766.587 1.625.519 1.521.461 1.005.294 1.058.301 1.387.383 1.033.272 1.75.437 1.209.287 1.002.228 1.029.225 1.634.339 1.362.264.867.159 1.664.287 1.26.2 1.063.157.366.054 1.003.133.818.105.492.061 1.006.115 1.048.108.514.051.875.081.926.076.505.04 1.147.08.843.049.99.052 1.46.057 1.031.03 1.428.022 1.383.005h-1.08l-1.783-.028-.979-.029-1.379-.052-.081-.005-.044-.001-1.506-.081-1.103-.074-.327-.025-.175-.013-.33-.027-.47-.037-1.013-.088-.318-.032-.182-.016-.332-.035-.691-.068-1.057-.118-1.129-.138-.487-.065-.308-.039-.68-.092-.015-.002-.05-.007-.316-.047-.874-.128-.189-.029-.145-.022-1.224-.195-1.555-.27-.421-.077.012.002-.487-.089-1.503-.292-1.808-.378-1.259-.28-.428-.101-.039-.009-1.077-.254-.093-.024-.015-.003-1.735-.434-1.033-.272-.863-.236-1.188-.333-.394-.115-.008-.003-.976-.285-.021-.006-.202-.059-1.319-.402-1.54-.491-.085-.028-.014-.005-1.752-.582.231.079 1.688.558.644.208.828.261 1.411.43 1.699.496 1.197.333.664.18 1.264.332 1.679.417 1.477.348 1.36.303 1.407.296 1.461.288 1.484.273.973.169.88.145 1.269.197 1.254.18.899.12 1.143.143 1.645.183 1.643.159 1.64.133 1.433.096.802.045.938.045 1.609.06.871.021.87.015.717.007 1.164-.001h-.174l.658-.006 1.04-.015 1.392-.036c27.099-1.437 53.665-13.58 79.958-36.472l1.384-1.3 1.32-1.267.744-.724 1.237-1.217.97-.972 1.339-1.364.518-.535 1.119-1.164.681-.719 1.141-1.217 2.493-2.77 2.405-2.664 1.146-1.265 1.109-1.221 1.075-1.177 1.202-1.308.964-1.043.995-1.068.679-.723.648-.684 1.081-1.13.666-.688 1.296-1.313 1.123-1.107.463-.448.552-.525.528-.493c.179-.165.356-.327.531-.485l.984-.87.716-.606.694-.562c16.165-19.717 16.165-32.621 16.165-92.088 0-46.979 3.132-79.863 8.612-85.344 7.047-7.047 4.698-7.83-7.829-4.698-4.262 1.065-8.433 1.134-12.791.021l-.079-.017c-5.431-1.19-10.214-4.065-14.591-7.404l-.786-.614c-3.058-2.409-5.935-5.045-8.722-7.767l-.061-.06a259.487 259.487 0 01-2.783-2.769l-.691-.699a200.833 200.833 0 01-1.777-1.831l.91.942 1.558 1.588c10.699 10.775 19.164 16.624 27.022 18.631l.675.129c3.968.694 7.966.422 11.892-.355l.993-.207.915-.21.665-.161c3.097-.784 6.162-1.679 9.132-2.864l.939-.396c1.635-.727 3.219-1.547 4.675-2.592l.617-.479.302-.247.503-.453.346-.334.477-.515.176-.206.337-.427.421-.627.159-.27.246-.461.283-.614c1.149-2.96.452-6.122-.736-8.956l-.382-.851-.372-.762-.53-1.003-.368-.651-.396-.672-.156-.256-.518-.827-.674-1.02-.759-1.096-.644-.896-.67-.895-.319-.42-.96-1.231-1.02-1.263-.979-1.176-.972-1.137-1.034-1.185-1.131-1.268-.902-.99-.841-.916c-4.385-4.71-8.955-9.238-13.591-13.7l-.604-.578a168.554 168.554 0 00-2.002-1.871l-1.034-.943-.927-.828-1.209-1.065-1.455-1.253-1.476-1.241-1.704-1.399-1.459-1.172-1.26-.991-.878-.683-1.015-.778-.811-.613-1.558-1.156c-6.561-4.81-13.388-9.227-20.414-13.333l-1.35-.778-1.365-.776-1.165-.657-1.064-.592-2.066-1.131-1.763-.947-1.122-.595-1.043-.547c-8.8-4.569-17.808-8.703-26.97-12.492l-1.182-.485-1.206-.489-2.359-.943-1.187-.468c-17.779-6.943-36.007-12.636-54.475-17.442l-1.479-.38-1.039-.266-1.999-.505-2.855-.706-1.46-.356-1.406-.339c-19.593-4.674-39.389-8.399-59.304-11.388l-1.509-.223-3.136-.454-2.748-.389-2.245-.311-3.59-.482-2.24-.292-1.125-.145-2.552-.323-2.646-.326-.856-.104c-18.83-2.254-37.723-3.902-56.658-5.032l-1.501-.087-2.525-.141-2.597-.139-1.194-.062-1.912-.095-3.249-.155-1.552-.07c-3.259-.143-6.52-.273-9.78-.39l-.51-.018c-13.203-.446-26.41-.668-39.621-.623l-1.997.009-2.727.016-2.34.018-2.976.028-2.742.031-1.343.017c-12.994.179-25.984.525-38.965 1.114l-2.038.097-2.346.118-1.511.078-2.426.131-3.181.182-1.798.109c-4.446.277-8.889.585-13.332.931-17.237 1.352-34.423 3.288-51.503 5.958a643.564 643.564 0 00-12.707 2.128l-2.049.371-2.097.386-3.013.57-1.126.218a654.045 654.045 0 00-14.541 3.009c-16.364 3.594-32.578 7.843-48.656 12.569a951.083 951.083 0 00-15.188 4.613l-1.436.45-1.247.393-2.065.655-2.638.846-1.346.433c-9.218 2.988-18.43 6.003-27.574 9.212-8.917 3.13-17.778 6.441-26.409 10.297l-.447.202c-4.624 2.1-9.161 4.383-13.563 6.926l-.667.39-1.295.777-1.462.902c-5.428 3.432-10.53 7.3-15.37 11.52l-1.495 1.328-1.399 1.274-.301.278-1.258 1.175-.765.724-.43.413a275.442 275.442 0 00-6.604 6.591 583.606 583.606 0 00-6.371 6.696l-.58.621-1.381 1.487-.345.364c-5.024 5.372-10.103 10.693-14.847 16.318l-.641.771-.969 1.182a101.379 101.379 0 00-2.637 3.415l-.451.626-.716 1.022c-.879 1.301-1.703 2.631-2.429 4.024l-.168.336-.343.729-.261.598a21.488 21.488 0 00-.562 1.554l-.086.294-.154.602-.125.587-.102.688-.051.569-.019.414-.001.511.019.488.086.73c.272 1.598.92 3.041 1.796 4.397l.235.35c.774 1.092 1.649 2.094 2.577 3.056l.325.328.953.925.663.618c.85.772 1.718 1.522 2.594 2.265l.447.347.244.172.648.43.104.063a14.253 14.253 0 004.024 1.601l.71.146.743.118c1.567.204 3.132.195 4.704.049l.433-.048.845-.117.858-.148.824-.169a34.679 34.679 0 003.791-1.105l.579-.215a40.585 40.585 0 005.696-2.743l.069-.041a25.319 25.319 0 012.685-2.255c7.047-5.481 13.31-14.093 13.31-20.357l.036-.642.105-.641.173-.638.126-.351.128-.318c.719-1.669 2.035-3.105 3.45-4.26l.295-.236c.288-.221.579-.436.874-.646l.307-.21.546-.35c.248-.156.499-.308.752-.457l.352-.2c2.511-1.402 5.258-2.384 8.058-3.036l.927-.204 1.097-.21.37-.062c.512-.089 1.025-.175 1.537-.27l1.045-.212a37.806 37.806 0 004.872-1.404l.449-.174.885-.368c1.256-.565 2.46-1.22 3.531-2.093l.451-.409c.695-.693 1.28-1.52 1.414-2.476l.027-.312-.018-.438-.065-.341-.094-.299c-.125-.321-.302-.615-.453-.925l-.009-.018a3.864 3.864 0 01-.293-.843l-.018-.095-.049-.572c.005-.329.052-.647.134-.965l.001-.001c.266-.986.88-1.86 1.566-2.609l.38-.398c1.127-1.129 2.45-2.053 3.828-2.863l.754-.433 1.108-.586.662-.327.99-.459.384-.166.188-.083.618-.264 1.201-.476.016-.005.07-.028 1.165-.423 1.022-.343.53-.166.073-.024.034-.01.133-.042 1.162-.335 1.154-.305.111-.03 1.147-.268.13-.027.102-.024.759-.157.775-.148.647-.115.297-.044.05-.009.803-.119.032-.004.009-.001 1.024-.129.115-.011.006-.001.963-.089.042-.003.171-.015.588-.033.088-.006.07-.003.462-.026.78-.019.376-.001-.951.015-.667.031-.158.009-.759.048-1.011.093-.278.031-.87.11-.885.132-1.086.187-.82.159-.674.142-1.252.29-.017.004-.119.031-1.242.331-1.207.351-.107.034-.964.311-.806.277-1.017.372-1.201.474-.013.005-.809.349-.495.217-.942.439-.599.296-.971.513-.599.338-.43.253-.367.225-.448.286-.417.278-.394.275-.382.28-.395.305-.344.278-.326.281-.332.301-.253.245-.266.273-.551.626-.392.536-.237.373-.126.225-.249.533-.182.586-.035.168-.057.451-.01.32.043.441.029.172.105.371.07.186.155.33.375.743.124.377.007.038.013.042.051.274.001.025.003.016.018.504-.059.45-.129.446-.196.441a5.7 5.7 0 01-.97 1.284l-.351.331-.19.163c-1.072.898-2.327 1.57-3.607 2.127l-.256.11c-.326.135-.321.133-.647.263l-.014.005c-1.69.662-3.447 1.153-5.22 1.536l-.862.178-.622.117-1.695.292-.657.126-.513.106-.649.144c-2.787.674-5.476 1.639-7.996 3.012l-.51.292-.835.515-.487.321-.668.478-.663.514c-1.418 1.183-2.689 2.557-3.446 4.259l-.219.572-.066.209-.147.573-.078.456c-.011.078-.02.156-.028.234l-.028.505-.003.24a18.275 18.275 0 01-.764 4.819l-.007.021c-1.315 4.416-4.165 8.385-7.432 11.602l-1.026.974-.732.653-.854.722-.569.459c-.376.293-.373.291-.749.578l-.379.283a46.48 46.48 0 01-3.146 2.099l-.336.2c-9.427 9.148-11.409 26.97-11.409 91.702 0 75.821.72 83.984 18.033 103.852l.819.639.729.58 1.201.976 1.108.921-1.273-1.055-1.114-.904-.651-.518-.864-.675a86.85 86.85 0 00-2.069-1.55l-.08-.058a57.004 57.004 0 00-3.406-2.295c-.309-.19-.612-.373-.911-.547a33.933 33.933 0 00-.896-.505 27.408 27.408 0 00-2.464-1.197l-.028-.012a20.396 20.396 0 00-1.113-.431l-.266-.092a17.9 17.9 0 00-.775-.24 14.556 14.556 0 00-1.594-.362l-.455-.069-.519-.058-.215-.017a11.886 11.886 0 00-.796-.03l-.556.015-.688.052-.536.069-.753.141-.689.176-.756.246-.82.325-.598.271-.673.344-.762.432-.826.519-.607.411-.715.515-.322.241-1.466 1.128-.658.501-1.008.76-.851.637-1.518 1.125-1.084.796-2.118 1.541-2.02 1.463c-1.366.99-2.544 1.851-3.448 2.545l-.939.742c-.292.24-.526.447-.696.616l-.035.021-.028.023-.034.035a.439.439 0 00-.044.07l-.018.043-.029.144-.011.13c0 .137.021.302.062.493l.135.504.182.5.255.645.139.317.507 1.093c.07.143.143.29.219.44l.4.773 1.013 1.842.703 1.219.597 1.006.281.466c.216.357.44.723.671 1.096l.668 1.072c.163.26.329.522.499.788l.516.805.859 1.326c.525.8 1.071 1.624 1.639 2.468l.634.935 1.448 2.111c.566.815 1.148 1.645 1.745 2.487l.828 1.163.842 1.169.687.947 1.031 1.406c.363.492.729.987 1.1 1.484l.548.732c.164.208.33.415.496.622l.502.622.505.619a154.739 154.739 0 002.743 3.253l.265.305c.582.667 1.169 1.33 1.765 1.991l1.021 1.121 1.101 1.185 1.448 1.523.6.619a159.693 159.693 0 004.437 4.385l1.37 1.289 1.241 1.142 1.31 1.177 1.287 1.139 1.419 1.227 1.383 1.167.622.519 1.117.92.649.526 1.008.805.585.462c.877.69 1.762 1.374 2.657 2.052l.432.326 1.498 1.113.783.572.814.587 1.104.788 1.281.899.622.431.754.516 1.648 1.107 1.738 1.14 1.635 1.051.73.46 1.054.655 1.08.662 1.781 1.071 1.857 1.087 1.169.67 1.29.727 1.386.768 1.404.763.413.222 1.779.938.703.363 1.3.666.702.353 1.517.754.805.392 1.67.802.747.353c.605.284 1.213.565 1.823.844l1.847.832 1.447.637.83.359 1.742.74 2.558 1.052.621.249 2.077.818.988.38c1.015.387 2.036.767 3.062 1.141l.869.314 1.428.505 1.057.367 2.233.759 1.757.575 1.396.448c.619.196 1.24.389 1.862.58.531.159 1.062.315 1.594.47l1.196.343 1.468.411 1.386.378 1.526.405.829.215.976.249 1.162.29.93.226 1.564.369 1.562.355.776.171c.793.173 1.584.341 2.369.501l.9.182 1.613.315 1.233.23.848.153 1.088.19 1.381.232 1.366.217 1.528.23 1.154.164 1.785.238 1.624.199c.948.111 1.895.214 2.84.308l.586.057c2.001.191 3.994.343 5.983.456l.681.036 1.194.059 1.836.07 1.629.043 1.615.025.807.005 1.279-.001 1.669-.019 1.079-.022.982-.024.969-.031.737-.03 1.676-.082 1.882-.116 1.767-.131 2.015-.177.824-.083 1.431-.151.744-.085 1.374-.165.728-.095c1.732-.229 3.461-.492 5.187-.787l1.537-.272 1.606-.304 1.824-.367 1.622-.349.416-.093a137.8 137.8 0 002.965-.698l1.503-.379 1.43-.378.6-.163 1.559-.436 1.411-.412c.747-.222 1.494-.45 2.242-.685l1.433-.462 1.067-.35 1.317-.445 1.48-.52 1.153-.415 1.284-.475 1.06-.403 1.498-.58 1.428-.572.632-.258 1.139-.473 1.083-.458 1.775-.773 1.809-.811 1.659-.767 1.592-.755.779-.377.718-.352c.81-.4 1.62-.807 2.427-1.22l1.43-.74 1.361-.719.647-.346a198.268 198.268 0 004.035-2.235l1.609-.926 1.442-.847 1.443-.863.604-.367c.437-.266.874-.534 1.311-.804l1.181-.737 1.296-.821.786-.502.96-.62 1.396-.914 1.387-.922c.799-.536 1.599-1.079 2.398-1.63l1.405-.975 1.304-.919.64-.455 1.182-.848 1.281-.928 1.845-1.362 1.239-.926.96-.727 1.769-1.356.972-.754 1.719-1.35 1.514-1.206 1.426-1.15 1.418-1.159 1.585-1.31 1.691-1.418 1.71-1.45 2.011-1.733 2.224-1.95 1.63-1.447 1-.896c.636-.572 1.273-1.15 1.909-1.731l1.14-1.046 1.339-1.237 1.255-1.171 1.529-1.436 1.138-1.081 1.331-1.273 1.551-1.5 1.072-1.043 1.157-1.133.787-.777 1.345-1.335.809-.807.759-.76 1.127-1.136 1.771-1.807 1.249-1.271 2.27-2.301-.046.047z" fill-rule="nonzero"/></svg>