<svg xmlns="http://www.w3.org/2000/svg" width="16" height="16" viewBox="0 0 24 24"><path d="M11.671 20.497H9.329c-.668 0-1.296-.26-1.768-.732l-3-3c-.472-.472-.732-1.1-.732-1.768s.26-1.295.732-1.768L16.146 1.644a.514.514 0 0 1 .707 0l7 7a.5.5 0 0 1 0 .707L13.439 19.765c-.472.472-1.1.732-1.768.732zM16.5 2.704L5.268 13.937c-.283.283-.439.66-.439 1.061s.156.777.439 1.061l3 3c.284.283.66.439 1.061.439h2.343c.401 0 .777-.156 1.061-.439l10.06-10.062L16.5 2.704z"/><path d="M15.5 17.497a.502.502 0 0 1-.354-.146l-7-7a.5.5 0 0 1 .707-.707l7 7a.5.5 0 0 1-.353.853zM5.5 20.497h-5a.5.5 0 0 1 0-1h5a.5.5 0 0 1 0 1zM14.5 22.497h-9a.5.5 0 0 1 0-1h9a.5.5 0 0 1 0 1z"/></svg>
