<svg width="24" height="24" viewBox="0 0 24 24" fill="none" xmlns="http://www.w3.org/2000/svg">
<path fill-rule="evenodd" clip-rule="evenodd" d="M10.7929 0.292895C11.1834 -0.0976302 11.8166 -0.0976319 12.2071 0.292891C13.2497 1.33543 13.3815 2.68253 13.3104 3.62894C13.3129 3.62783 13.3154 3.62671 13.3179 3.6256C13.3467 3.61276 13.3762 3.59963 13.4064 3.58619C14.0249 3.31131 14.7985 3 16 3C17.7111 3 19.4983 3.57113 20.7896 4.93838C22.0958 6.32148 22.7668 8.38274 22.4951 11.0995C22.2278 13.7722 21.1689 16.5361 19.9224 18.6355C19.2981 19.6869 18.6047 20.6093 17.9043 21.2832C17.2491 21.9134 16.4093 22.5 15.5 22.5C14.2763 22.5 13.605 22.176 13.0664 21.8682C13.0363 21.851 13.0075 21.8345 12.9798 21.8186C12.5979 21.5992 12.4253 21.5 12 21.5C11.5748 21.5 11.4022 21.5992 11.0203 21.8186C10.9926 21.8345 10.9638 21.851 10.9337 21.8682C10.3951 22.176 9.72381 22.5 8.50003 22.5C7.59076 22.5 6.75094 21.9134 6.09581 21.2832C5.39537 20.6093 4.70195 19.6869 4.07768 18.6355C2.83117 16.5361 1.77227 13.7722 1.50499 11.0995C1.23331 8.38274 1.90425 6.32148 3.21052 4.93838C4.50181 3.57113 6.28895 3 8.00004 3C9.2016 3 9.9752 3.31131 10.5937 3.58619C10.6239 3.59963 10.6534 3.61276 10.6822 3.6256C10.9094 3.72682 11.0943 3.80918 11.2678 3.87061C11.2882 3.75005 11.3051 3.62065 11.3155 3.4858C11.3676 2.80772 11.2466 2.1608 10.7929 1.70711C10.4024 1.31659 10.4024 0.68342 10.7929 0.292895ZM4.66454 6.31163C3.8458 7.17852 3.26674 8.61726 3.49507 10.9005C3.72781 13.2278 4.66891 15.7139 5.79739 17.6145C6.36062 18.5631 6.94845 19.3282 7.48239 19.8418C8.06163 20.3991 8.40931 20.5 8.50003 20.5C9.27626 20.5 9.60497 20.324 9.9414 20.1318C9.97237 20.1141 10.0041 20.0956 10.0368 20.0767C10.4582 19.8323 11.0313 19.5 12 19.5C12.9688 19.5 13.5419 19.8323 13.9633 20.0767C13.9959 20.0956 14.0277 20.1141 14.0587 20.1318C14.3951 20.324 14.7238 20.5 15.5 20.5C15.5908 20.5 15.9384 20.3991 16.5177 19.8418C17.0516 19.3282 17.6395 18.5631 18.2027 17.6145C19.3312 15.7139 20.2723 13.2278 20.505 10.9005C20.7333 8.61726 20.1543 7.17852 19.3355 6.31162C18.5018 5.42887 17.289 5 16 5C15.2016 5 14.7252 5.18869 14.2187 5.41381C14.1766 5.4325 14.1335 5.45192 14.0893 5.47185C13.578 5.70235 12.9178 6 12 6C11.0823 6 10.422 5.70235 9.91075 5.47185C9.86654 5.45193 9.82345 5.4325 9.7814 5.41381C9.27488 5.18869 8.79848 5 8.00004 5C6.71113 5 5.49826 5.42887 4.66454 6.31163Z" fill="currentColor"/>
</svg>
