<svg width="24" height="24" viewBox="0 0 24 24" fill="none" xmlns="http://www.w3.org/2000/svg">
<path fill-rule="evenodd" clip-rule="evenodd" d="M22.7018 10.9756C19.2582 10.7013 17.0303 9.86618 15.5821 8.4179C14.1338 6.96961 13.2987 4.74177 13.0244 1.29818C18.1437 1.78215 22.2178 5.85622 22.7018 10.9756ZM22.7057 12.9818C18.9702 12.7048 16.1294 11.7937 14.1679 9.83211C12.2063 7.87056 11.2951 5.02981 11.0182 1.29424C5.8646 1.76082 1.76077 5.86464 1.29419 11.0182C5.02976 11.2952 7.87052 12.2063 9.83207 14.1679C11.7936 16.1294 12.7048 18.9702 12.9817 22.7058C18.1353 22.2392 22.2391 18.1354 22.7057 12.9818ZM1.29814 13.0244C1.7821 18.1438 5.85617 22.2179 10.9755 22.7018C10.7012 19.2582 9.86614 17.0304 8.41785 15.5821C6.96957 14.1338 4.74173 13.2987 1.29814 13.0244Z" fill="currentColor"/>
</svg>
