<svg width="24" height="24" viewBox="0 0 24 24" fill="none" xmlns="http://www.w3.org/2000/svg">
<g clip-path="url(#clip0)">
<path fill-rule="evenodd" clip-rule="evenodd" d="M8.91947 2C7.35927 2 5.94145 2.90717 5.28763 4.32377L3.52437 8.14417L1.44719 7.10557C0.95321 6.85858 0.352537 7.05881 0.105548 7.55279C-0.141442 8.04676 0.0587828 8.64744 0.552761 8.89443L2.01066 9.62338C1.07135 10.4875 0.587739 11.7644 0.750089 13.0632L1.49997 19.0623V21C1.49997 21.5523 1.94769 22 2.49997 22H6.49997C6.95884 22 7.35883 21.6877 7.47012 21.2425L7.78075 20H16.2192L16.5298 21.2425C16.6411 21.6877 17.0411 22 17.5 22H21.5C22.0523 22 22.5 21.5523 22.5 21V19.0623L23.2499 13.0632C23.4122 11.7644 22.9286 10.4875 21.9893 9.62338L23.4472 8.89443C23.9412 8.64744 24.1414 8.04676 23.8944 7.55279C23.6474 7.05881 23.0467 6.85858 22.5528 7.10557L20.4756 8.14417L18.7123 4.32377C18.0585 2.90717 16.6407 2 15.0805 2H8.91947ZM18.4371 8.5H5.56288L7.10355 5.16189C7.43046 4.45358 8.13937 4 8.91947 4H15.0805C15.8606 4 16.5695 4.45358 16.8964 5.16188L18.4371 8.5ZM5.66437 12.5136C5.1196 12.4228 4.60437 12.7908 4.51358 13.3356C4.42278 13.8803 4.7908 14.3956 5.33557 14.4864L8.33557 14.9864C8.88034 15.0772 9.39557 14.7091 9.48637 14.1644C9.57716 13.6196 9.20914 13.1044 8.66437 13.0136L5.66437 12.5136ZM18.6644 14.4864C19.2091 14.3956 19.5772 13.8803 19.4864 13.3356C19.3956 12.7908 18.8803 12.4228 18.3356 12.5136L15.3356 13.0136C14.7908 13.1044 14.4228 13.6196 14.5136 14.1644C14.6044 14.7091 15.1196 15.0772 15.6644 14.9864L18.6644 14.4864Z" fill="currentColor"/>
</g>
<defs>
<clipPath id="clip0">
<rect width="24" height="24" fill="white"/>
</clipPath>
</defs>
</svg>
