<svg width="24" height="24" viewBox="0 0 24 24" fill="none" xmlns="http://www.w3.org/2000/svg">
<g clip-path="url(#clip0)">
<path fill-rule="evenodd" clip-rule="evenodd" d="M5.28763 4.32377C5.94145 2.90717 7.35927 2 8.91947 2H15.0805C16.6407 2 18.0585 2.90717 18.7123 4.32377L20.4756 8.14417L22.5528 7.10557C23.0467 6.85858 23.6474 7.05881 23.8944 7.55279C24.1414 8.04676 23.9412 8.64744 23.4472 8.89443L21.9893 9.62338C22.9286 10.4875 23.4122 11.7644 23.2499 13.0632L22.5 19.0623V21C22.5 21.5523 22.0523 22 21.5 22H17.5C17.0411 22 16.6411 21.6877 16.5298 21.2425L16.2192 20H7.78075L7.47012 21.2425C7.35883 21.6877 6.95884 22 6.49997 22H2.49997C1.94769 22 1.49997 21.5523 1.49997 21V19.0623L0.750089 13.0632C0.587739 11.7644 1.07135 10.4875 2.01066 9.62338L0.552761 8.89443C0.0587828 8.64744 -0.141442 8.04676 0.105548 7.55279C0.352537 7.05881 0.95321 6.85858 1.44719 7.10557L3.52437 8.14417L5.28763 4.32377ZM5.56288 8.5H18.4371L16.8964 5.16188C16.5695 4.45358 15.8606 4 15.0805 4H8.91947C8.13937 4 7.43046 4.45358 7.10355 5.16189L5.56288 8.5ZM19.723 10.5H4.27696L3.69021 10.852C3.01112 11.2595 2.63642 12.0293 2.73465 12.8151L3.49225 18.876C3.4974 18.9171 3.49997 18.9585 3.49997 19V20H5.7192L6.02983 18.7575C6.14112 18.3123 6.54111 18 6.99997 18H17C17.4588 18 17.8588 18.3123 17.9701 18.7575L18.2808 20H20.5V19C20.5 18.9585 20.5026 18.9171 20.5077 18.876L21.2653 12.8151C21.3635 12.0293 20.9888 11.2595 20.3097 10.852L19.723 10.5ZM4.51358 13.3356C4.60438 12.7908 5.1196 12.4228 5.66437 12.5136L8.66437 13.0136C9.20914 13.1044 9.57716 13.6196 9.48637 14.1644C9.39557 14.7092 8.88035 15.0772 8.33558 14.9864L5.33558 14.4864C4.79081 14.3956 4.42279 13.8804 4.51358 13.3356ZM19.4864 13.3356C19.5772 13.8804 19.2091 14.3956 18.6644 14.4864L15.6644 14.9864C15.1196 15.0772 14.6044 14.7092 14.5136 14.1644C14.4228 13.6196 14.7908 13.1044 15.3356 13.0136L18.3356 12.5136C18.8803 12.4228 19.3956 12.7908 19.4864 13.3356Z" fill="currentColor"/>
</g>
<defs>
<clipPath id="clip0">
<rect width="24" height="24" fill="white"/>
</clipPath>
</defs>
</svg>
