<svg xmlns="http://www.w3.org/2000/svg" width="12" height="12" viewBox="0 0 12 12"><path class="st0" d="M8.2,0H3.8C1.7,0,0,1.7,0,3.8v4.5C0,10.3,1.7,12,3.8,12h4.5c2.1,0,3.8-1.7,3.8-3.8V3.8C12,1.7,10.3,0,8.2,0z M10.5,8.2c0,1.2-1,2.2-2.2,2.2H3.8c-1.2,0-2.2-1-2.2-2.2V3.8c0-1.2,1-2.2,2.2-2.2h4.5c1.2,0,2.2,1,2.2,2.2V8.2z"/><path class="st0" d="M6,3C4.3,3,3,4.3,3,6s1.3,3,3,3s3-1.3,3-3S7.7,3,6,3z M6,7.5C5.2,7.5,4.5,6.8,4.5,6S5.2,4.5,6,4.5 S7.5,5.2,7.5,6S6.8,7.5,6,7.5z"/><path class="st0" d="M9,2L9,2c0.6,0,1,0.4,1,1l0,0c0,0.6-0.4,1-1,1l0,0C8.4,4,8,3.6,8,3l0,0C8,2.4,8.4,2,9,2z"/></svg>
